<svg xmlns="http://www.w3.org/2000/svg" xmlns:xlink="http://www.w3.org/1999/xlink" xmlns:lucid="lucid" width="2360.62" height="1248.83"><g transform="translate(611 -12)" lucid:page-tab-id="0_0"><path d="M-1696 0h3456v1360h-3456z" fill="#fff"/><path d="M-548 37c0-2.76 2.24-5 5-5h838c2.76 0 5 2.24 5 5v38c0 2.76-2.24 5-5 5h-838c-2.76 0-5-2.24-5-5z" fill="none"/><use xlink:href="#a" transform="matrix(1,0,0,1,-548.0000000000001,32) translate(0 31.11111111111111)"/><use xlink:href="#b" transform="matrix(1,0,0,1,-548.0000000000001,32) translate(203.5555555555556 31.11111111111111)"/><use xlink:href="#c" transform="matrix(1,0,0,1,-548.0000000000001,32) translate(430.1234567901235 31.11111111111111)"/><path d="M-600 80h2328" stroke="#999" stroke-width="2" fill="none"/><path d="M1040 37c0-2.76 2.24-5 5-5h678c2.76 0 5 2.24 5 5v38c0 2.76-2.24 5-5 5h-678c-2.76 0-5-2.24-5-5z" fill="none"/><use xlink:href="#d" transform="matrix(1,0,0,1,1040,32) translate(169.11111111111632 28.4444444444444)"/><use xlink:href="#e" transform="matrix(1,0,0,1,1040,32) translate(255.40740740741177 28.4444444444444)"/><use xlink:href="#f" transform="matrix(1,0,0,1,1040,32) translate(286.27160493827563 28.4444444444444)"/><use xlink:href="#g" transform="matrix(1,0,0,1,1040,32) translate(379.9753086419784 28.4444444444444)"/><use xlink:href="#h" transform="matrix(1,0,0,1,1040,32) translate(393.49382716049683 28.4444444444444)"/><use xlink:href="#i" transform="matrix(1,0,0,1,1040,32) translate(461.33333333333564 28.4444444444444)"/><use xlink:href="#j" transform="matrix(1,0,0,1,1040,32) translate(492.1975308641995 28.4444444444444)"/><use xlink:href="#k" transform="matrix(1,0,0,1,1040,32) translate(516.4567901234585 28.4444444444444)"/><use xlink:href="#l" transform="matrix(1,0,0,1,1040,32) translate(601.5802469135812 28.4444444444444)"/><use xlink:href="#m" transform="matrix(1,0,0,1,1040,32) translate(638.6172839506178 28.4444444444444)"/><path d="M300 445c0-2.76 2.24-5 5-5h150c2.76 0 5 2.24 5 5v110c0 2.76-2.24 5-5 5H305c-2.76 0-5-2.24-5-5z" stroke="#666" stroke-width="2" fill="#ffeca9"/><use xlink:href="#n" transform="matrix(1,0,0,1,305,445) translate(10.308641975309285 59.4444444444444)"/><path d="M765 445c0-2.76 2.24-5 5-5h190c2.76 0 5 2.24 5 5v115c-33.4-20.04-54.2-20.04-66.8-20.04-20 0-46.6 20.04-66.6 20.04-12.4 0-33.4 0-66.6-20.04z" stroke="#666" stroke-width="2" fill="#c1e4f7"/><use xlink:href="#o" transform="matrix(1,0,0,1,770,445) translate(13.086419753087227 49.4444444444444)"/><path d="M344 204c-13.25 0-24-10.75-24-24 0-10.6 6.5-19.55 16.58-22.83C336 126 376 120 392 132c8-18 48-12 48 6 24-6 48 18 32 48 16 24 0 54-32 42-8 15.6-40 15.6-48 0-16 12-48 6-48-24z" stroke="#666" stroke-width="2" fill="#c7e8ac"/><use xlink:href="#p" transform="matrix(1,0,0,1,324.9999999999999,125) translate(27.623456790123925 59.4444444444444)"/><path d="M430.7 267.83c.72-2.67 3.54-4.84 6.3-4.84h118c2.76 0 4.42 2.16 3.7 4.83l-29.4 110.33c-.72 2.67-3.54 4.83-6.3 4.83H405c-2.76 0-4.42-2.17-3.7-4.84z" stroke="#666" stroke-width="2" fill="#fff"/><use xlink:href="#q" transform="matrix(1,0,0,1,405,267.99397153737715) translate(36.14197530864236 59.4444444444444)"/><path d="M380 415.9c0-2.43 1.98-4.4 4.4-4.4H475c2.76 0 5-2.24 5-5V384" stroke="#ffeca9" stroke-width="5" fill="none"/><path d="M380 430.9l-4.64-14.26h9.28z" fill="#ffeca9"/><path d="M380 439l-8.08-24.86h16.16zm-1.2-19.86l1.2 3.68 1.2-3.68zM482.5 384h-5v-1h5z" fill="#ffeca9"/><path d="M540 445c0-2.76 2.24-5 5-5h150c2.76 0 5 2.24 5 5v110c0 2.76-2.24 5-5 5H545c-2.76 0-5-2.24-5-5z" stroke="#666" stroke-width="2" fill="#fff"/><path d="M556 440v120m128-120v120" stroke="#666" stroke-width="2" fill="none"/><use xlink:href="#r" transform="matrix(1,0,0,1,565,445) translate(20.555555555555898 59.4444444444444)"/><use xlink:href="#s" transform="matrix(1,0,0,1,565,445) translate(68.58024691358011 59.4444444444444)"/><path d="M1360 308c0-2.77 2.24-5 5-5h250c2.76 0 5 2.23 5 5v115c-43.42-20.05-70.46-20.05-86.84-20.05-26 0-60.58 20.04-86.58 20.04-16.12 0-43.42 0-86.58-20.05z" stroke="#666" stroke-width="2" fill="#c1e4f7"/><use xlink:href="#t" transform="matrix(1,0,0,1,1365,307.9939715373772) translate(26.481481481482447 49.4444444444444)"/><path d="M1320 468c0-2.77 2.24-5 5-5h330c2.76 0 5 2.23 5 5v110c0 2.76-2.24 5-5 5h-330c-2.76 0-5-2.24-5-5z" stroke="#666" stroke-width="2" fill="#ffeca9"/><use xlink:href="#u" transform="matrix(1,0,0,1,1325,467.9939715373771) translate(1.6975308641991944 59.4444444444444)"/><path d="M1325 683.33c0-2.76 2.24-5 5-5h320c2.76 0 5 2.24 5 5v115c-55.1-20.04-89.43-20.04-110.22-20.04-33 0-76.9 20.03-109.9 20.03-20.45 0-55.1 0-109.88-20.04z" stroke="#666" stroke-width="2" fill="#c1e4f7"/><use xlink:href="#v" transform="matrix(1,0,0,1,1330,683.3333333333778) translate(8.000000000000028 49.266666666666666)"/><path d="M1490 584v75.1" stroke="#999" stroke-width="2" fill="none"/><path d="M1491 584h-2v-1h2zM1490 674.1l-4.64-14.27h9.28z" fill="#999"/><path d="M1490 677.33l-6-18.5h12zm-3.26-16.5l3.26 10.03 3.26-10.03z" fill="#999"/><path d="M1325 868c0-2.77 2.24-5 5-5h330c2.76 0 5 2.23 5 5v110c0 2.76-2.24 5-5 5h-330c-2.76 0-5-2.24-5-5z" stroke="#666" stroke-width="2" fill="#ffeca9"/><use xlink:href="#w" transform="matrix(1,0,0,1,1330,867.9939715373769) translate(36.051851851851836 59.266666666666666)"/><path d="M1080 308c0-2.77 2.24-5 5-5h150c2.76 0 5 2.23 5 5v110c0 2.76-2.24 5-5 5h-150c-2.76 0-5-2.24-5-5z" stroke="#666" stroke-width="2" fill="#fff"/><path d="M1096 303v120m128-120v120" stroke="#666" stroke-width="2" fill="none"/><use xlink:href="#x" transform="matrix(1,0,0,1,1105,307.9939715373772) translate(18.703703703704065 59.4444444444444)"/><use xlink:href="#y" transform="matrix(1,0,0,1,1105,307.9939715373772) translate(58.08641975308639 59.4444444444444)"/><use xlink:href="#z" transform="matrix(1,0,0,1,1105,307.9939715373772) translate(78.95061728395038 59.4444444444444)"/><path d="M865 439v-71c0-2.77 2.24-5 5-5h190.76" stroke="#999" stroke-width="2" fill="none"/><path d="M866 440h-2v-1h2zM1075.76 363l-14.26 4.63v-9.27z" fill="#999"/><path d="M1079 363l-18.5 6V357zm-16.5 3.25l10.03-3.26-10.03-3.26z" fill="#999"/><path d="M1241 363h99.76" stroke="#999" stroke-width="2" fill="none"/><path d="M1241 364h-1v-2h1zM1355.76 363l-14.26 4.63v-9.27z" fill="#999"/><path d="M1359 363l-18.5 6V357zm-16.5 3.25l10.03-3.26-10.03-3.26z" fill="#999"/><path d="M461 500h59.76" stroke="#999" stroke-width="2" fill="none"/><path d="M461 501h-1v-2h1zM535.76 500l-14.26 4.64v-9.28z" fill="#999"/><path d="M539 500l-18.5 6v-12zm-16.5 3.26l10.03-3.26-10.03-3.26z" fill="#999"/><path d="M701 500h44.76" stroke="#999" stroke-width="2" fill="none"/><path d="M701 501h-1v-2h1zM760.76 500l-14.26 4.64v-9.28z" fill="#999"/><path d="M764 500l-18.5 6v-12zm-16.5 3.26l10.03-3.26-10.03-3.26z" fill="#999"/><path d="M1490 789.1v54.66" stroke="#999" stroke-width="2" fill="none"/><path d="M1491 789.1h-2v-.77l2-.5zM1490 858.76l-4.64-14.27h9.28z" fill="#999"/><path d="M1490 862l-6-18.5h12zm-3.26-16.5l3.26 10.02 3.26-10.03z" fill="#999"/><path d="M1330 1063.33c0-2.76 2.24-5 5-5h320c2.76 0 5 2.24 5 5v115c-55.1-20.04-89.43-20.04-110.22-20.04-33 0-76.9 20.03-109.9 20.03-20.45 0-55.1 0-109.88-20.04z" stroke="#666" stroke-width="2" fill="#c1e4f7"/><use xlink:href="#A" transform="matrix(1,0,0,1,1335,1063.3333333333778) translate(25.214814814814787 49.266666666666666)"/><path d="M1495 984v55.1" stroke="#999" stroke-width="2" fill="none"/><path d="M1496 984h-2v-1h2zM1495 1054.1l-4.64-14.27h9.28z" fill="#999"/><path d="M1495 1057.33l-6-18.5h12zm-3.26-16.5l3.26 10.03 3.26-10.03z" fill="#999"/><path d="M1080 1063.33c0-2.76 2.24-5 5-5h150c2.76 0 5 2.24 5 5v110c0 2.76-2.24 5-5 5h-150c-2.76 0-5-2.24-5-5z" stroke="#666" stroke-width="2" fill="#fff"/><path d="M1096 1058.33v120m128-120v120" stroke="#666" stroke-width="2" fill="none"/><use xlink:href="#B" transform="matrix(1,0,0,1,1105,1063.3333333333778) translate(26.04938271604967 59.4444444444444)"/><path d="M660 1063.33c0-2.76 2.24-5 5-5h320c2.76 0 5 2.24 5 5v115c-55.1-20.04-89.43-20.04-110.22-20.04-33 0-76.9 20.03-109.9 20.03-20.45 0-55.1 0-109.88-20.04z" stroke="#666" stroke-width="2" fill="#c1e4f7"/><use xlink:href="#C" transform="matrix(1,0,0,1,665,1063.3333333333778) translate(22.785185185185156 49.266666666666666)"/><path d="M745 786.67c0-2.76 2.24-5 5-5h150c2.76 0 5 2.24 5 5v110c0 2.76-2.24 5-5 5H750c-2.76 0-5-2.24-5-5z" stroke="#666" stroke-width="2" fill="#fff"/><path d="M761 781.67v120m128-120v120" stroke="#666" stroke-width="2" fill="none"/><use xlink:href="#D" transform="matrix(1,0,0,1,770,786.6666666666222) translate(34.012345679012554 59.4444444444444)"/><path d="M195 803.33c0-2.76 2.24-5 5-5h320c2.76 0 5 2.24 5 5v115c-55.1-20.04-89.43-20.04-110.22-20.04-33 0-76.9 20.03-109.9 20.03-20.45 0-55.1 0-109.88-20.04z" stroke="#666" stroke-width="2" fill="#c1e4f7"/><use xlink:href="#E" transform="matrix(1,0,0,1,200,803.3333333333778) translate(24.59259259259258 49.266666666666666)"/><path d="M1079 1118.33h-69.76" stroke="#999" stroke-width="2" fill="none"/><path d="M1080 1119.33h-1v-2h1zM1008.5 1122.97l-14.26-4.64 14.26-4.63z" fill="#999"/><path d="M1009.5 1124.35l-18.5-6.02 18.5-6zm-12.03-6.02l10.03 3.26v-6.53z" fill="#999"/><path d="M1329 1118.33h-69.76" stroke="#999" stroke-width="2" fill="none"/><path d="M1330 1119.33h-1v-2h1zM1258.5 1122.97l-14.26-4.64 14.26-4.63z" fill="#999"/><path d="M1259.5 1124.35l-18.5-6.02 18.5-6zm-12.03-6.02l10.03 3.26v-6.53z" fill="#999"/><path d="M825 1057.33V920.9" stroke="#999" stroke-width="2" fill="none"/><path d="M826 1058.33h-2v-1h2zM829.64 920.17h-9.28L825 905.9z" fill="#999"/><path d="M831 921.17h-12l6-18.5zm-9.26-2h6.52L825 909.14z" fill="#999"/><path d="M-20 1099c0-2.75 2.24-5 5-5h150c2.76 0 5 2.25 5 5v110c0 2.77-2.24 5-5 5H-15c-2.76 0-5-2.23-5-5z" stroke="#666" stroke-width="2" fill="#fff"/><path d="M-4 1094v120m128-120v120" stroke="#666" stroke-width="2" fill="none"/><use xlink:href="#D" transform="matrix(1,0,0,1,5,1099.0120569252017) translate(34.012345679012554 59.4444444444444)"/><path d="M255 1099c0-2.75 2.24-5 5-5h320c2.76 0 5 2.25 5 5v115c-55.1-20.03-89.43-20.03-110.22-20.03-33 0-76.9 20.04-109.9 20.04-20.45 0-55.1 0-109.88-20.03z" stroke="#666" stroke-width="2" fill="#d1bcd2"/><use xlink:href="#F" transform="matrix(1,0,0,1,260.0000000000001,1099.0120569252017) translate(4.918518518518539 49.266666666666666)"/><path d="M-540 1099c0-2.75 2.24-5 5-5h320c2.76 0 5 2.25 5 5v115c-55.1-20.03-89.43-20.03-110.22-20.03-33 0-76.9 20.04-109.9 20.04-20.45 0-55.1 0-109.88-20.03z" stroke="#666" stroke-width="2" fill="#c1e4f7"/><use xlink:href="#G" transform="matrix(1,0,0,1,-535,1099.0120569252017) translate(32.77037037037036 49.266666666666666)"/><path d="M-455 902c0-2.76 2.24-5 5-5h150c2.76 0 5 2.24 5 5v110c0 2.77-2.24 5-5 5h-150c-2.76 0-5-2.23-5-5z" stroke="#666" stroke-width="2" fill="#fff"/><path d="M-439 897v120m128-120v120" stroke="#666" stroke-width="2" fill="none"/><use xlink:href="#D" transform="matrix(1,0,0,1,-430,902.0060284625788) translate(34.012345679012554 59.4444444444444)"/><path d="M-21 1154h-169.76" stroke="#999" stroke-width="2" fill="none"/><path d="M-20 1155h-1v-2h1zM-191.5 1158.65l-14.26-4.64 14.26-4.62z" fill="#999"/><path d="M-190.5 1160.02l-18.5-6 18.5-6.02zm-12.03-6l10.03 3.25v-6.52z" fill="#999"/><path d="M-375 1093v-56.76" stroke="#999" stroke-width="2" fill="none"/><path d="M-374 1094h-2v-1h2zM-370.36 1035.5h-9.28l4.64-14.26z" fill="#999"/><path d="M-369 1036.5h-12l6-18.5zm-9.26-2h6.52l-3.26-10.02z" fill="#999"/><path d="M194 858.33h-319c-2.76 0-5 2.24-5 5V952c0 2.77-2.24 5-5 5h-140.76" stroke="#999" stroke-width="2" fill="none"/><path d="M195 859.33h-1v-2h1zM-276.5 961.64l-14.26-4.63 14.26-4.63z" fill="#999"/><path d="M-275.5 963.02l-18.5-6 18.5-6.03zm-12.03-6l10.03 3.24v-6.5z" fill="#999"/><path d="M-540 725c0-2.76 2.24-5 5-5h320c2.76 0 5 2.24 5 5v115c-55.1-20.04-89.43-20.04-110.22-20.04-33 0-76.9 20.04-109.9 20.04-20.45 0-55.1 0-109.88-20.04z" stroke="#666" stroke-width="2" fill="#c1e4f7"/><use xlink:href="#H" transform="matrix(1,0,0,1,-535,724.9999999999559) translate(37.62962962962962 49.266666666666666)"/><path d="M-375 896v-47" stroke="#999" stroke-width="2" fill="none"/><path d="M-374 897h-2v-1h2zM-370.36 848.28h-9.28L-375 834z" fill="#999"/><path d="M-369 849.28h-12l6-18.5zm-9.26-2h6.52l-3.26-10.03z" fill="#999"/><path d="M500 1165c0-2.76 2.24-5 5-5h70c2.76 0 5 2.24 5 5v30c0 2.76-2.24 5-5 5h-70c-2.76 0-5-2.24-5-5z" stroke="#000" stroke-opacity="0" stroke-width="2" fill="#fff" fill-opacity="0"/><use xlink:href="#I" transform="matrix(1,0,0,1,505,1165) translate(-6.3580246913580325 18.555555555555557)"/><path d="M254 1154h-94.76" stroke="#999" stroke-width="2" fill="none"/><path d="M255 1155h-1v-2h1zM158.5 1158.65l-14.26-4.64 14.26-4.62z" fill="#999"/><path d="M159.5 1160.02l-18.5-6 18.5-6.02zm-12.03-6l10.03 3.25v-6.52z" fill="#999"/><path d="M1490 413.8v19.1c0 2.75 2.24 5 5 5h10c2.76 0 5 2.23 5 5v.86" stroke="#999" stroke-width="2" fill="none"/><path d="M1491 413.8h-2v-.75l2-.6zM1510 458.76l-4.64-14.27h9.28z" fill="#999"/><path d="M1510 462l-6-18.5h12zm-3.26-16.5l3.26 10.02 3.26-10.03z" fill="#999"/><path d="M1020 201v-36c0-2.76 2.24-5 5-5h670c2.76 0 5 2.24 5 5v36" fill="#ffdba9"/><path d="M1025 201c-2.76 0-5-2.24-5-5v-31c0-2.76 2.24-5 5-5h670c2.76 0 5 2.24 5 5v31c0 2.76-2.24 5-5 5zM1020 201v1034.83c0 2.76 2.24 5 5 5h670c2.76 0 5-2.24 5-5V201M1020 201h680" stroke="#666" stroke-width="2" fill="none"/><use xlink:href="#J" transform="matrix(1,0,0,1,1020,160) translate(142.25185185185182 24.766666666666666)"/><use xlink:href="#K" transform="matrix(1,0,0,1,1020,160) translate(261.6592592592592 24.766666666666666)"/><use xlink:href="#L" transform="matrix(1,0,0,1,1020,160) translate(326.66666666666663 24.766666666666666)"/><use xlink:href="#M" transform="matrix(1,0,0,1,1020,160) translate(423.14074074074074 24.766666666666666)"/><use xlink:href="#N" transform="matrix(1,0,0,1,1020,160) translate(459.8222222222222 24.766666666666666)"/><use xlink:href="#O" transform="matrix(1,0,0,1,1020,160) translate(485.77777777777777 24.766666666666666)"/><path d="M210.7 267.83c.72-2.67 3.54-4.84 6.3-4.84h138c2.76 0 4.42 2.16 3.7 4.83l-29.4 110.33c-.72 2.67-3.54 4.83-6.3 4.83H185c-2.76 0-4.42-2.17-3.7-4.84z" stroke="#666" stroke-width="2" fill="#fff"/><use xlink:href="#P" transform="matrix(1,0,0,1,185,267.993971537333) translate(19.04320987654387 59.4444444444444)"/><use xlink:href="#Q" transform="matrix(1,0,0,1,185,267.993971537333) translate(90.58641975308637 59.4444444444444)"/><path d="M267.5 262v-77c0-2.76 2.24-5 5-5h23.4" stroke="#ffeca9" stroke-width="5" fill="none"/><path d="M270 263h-5v-1h5zM310.9 180l-14.26 4.64v-9.28z" fill="#ffeca9"/><path d="M319 180l-24.86 8.08v-16.16zm-19.86 1.2l3.68-1.2-3.68-1.2z" fill="#ffeca9"/><path d="M475.73 180h28c2.75 0 5 2.24 5 5v53.9" stroke="#ffeca9" stroke-width="5" fill="none"/><path d="M475.73 182.5h-2.1l.8-1.78 1.08-3.22h.23zM508.72 253.9l-4.63-14.26h9.26z" fill="#ffeca9"/><path d="M508.72 262l-8.07-24.86h16.15zm-1.2-19.86l1.2 3.67 1.2-3.66z" fill="#ffeca9"/><path d="M-85 585c0-2.76 2.24-5 5-5h230c2.76 0 5 2.24 5 5v50c0 2.76-2.24 5-5 5H-80c-2.76 0-5-2.24-5-5z" stroke="#000" stroke-opacity="0" stroke-width="2" fill="#fff" fill-opacity="0"/><use xlink:href="#R" transform="matrix(1,0,0,1,-80,584.999999999978) translate(1.7901234567912354 29.4444444444444)"/><use xlink:href="#S" transform="matrix(1,0,0,1,-80,584.999999999978) translate(107.59259259259267 29.4444444444444)"/><path d="M299 500h-24c-2.76 0-5-2.24-5-5v-87.92" stroke="#ffeca9" stroke-width="5" fill="none"/><path d="M300 502.5h-1v-5h1zM274.64 406.35h-9.28l4.64-14.27z" fill="#ffeca9"/><path d="M278.08 408.85h-16.16L270 384zm-9.27-5h2.4l-1.2-3.68z" fill="#ffeca9"/><path d="M155 610h220c2.76 0 5-2.24 5-5v-25.76" stroke="#999" stroke-width="2" fill="none"/><path fill="#999"/><path d="M384.64 578.5h-9.28l4.64-14.26z" fill="#999"/><path d="M386 579.5h-12l6-18.5zm-9.26-2h6.52L380 567.47z" fill="#999"/><path d="M-460 548c0-2.77 2.24-5 5-5h150c2.76 0 5 2.23 5 5v110c0 2.76-2.24 5-5 5h-150c-2.76 0-5-2.24-5-5z" stroke="#666" stroke-width="2" fill="#ffeca9"/><use xlink:href="#T" transform="matrix(1,0,0,1,-455,547.993971537333) translate(25.74074074074123 59.4444444444444)"/><path d="M-375 719v-36.77" stroke="#999" stroke-width="2" fill="none"/><path d="M-374 720h-2v-1h2zM-370.36 681.5h-9.28l4.64-14.27z" fill="#999"/><path d="M-369 682.5h-12l6-18.5zm-9.26-2h6.52l-3.26-10.03z" fill="#999"/><path d="M-90 523.33c0-2.76 2.24-5 5-5h230c2.76 0 5 2.24 5 5v53.34c0 2.76-2.24 5-5 5H-85c-2.76 0-5-2.24-5-5z" stroke="#000" stroke-opacity="0" stroke-width="2" fill="#fff" fill-opacity="0"/><use xlink:href="#U" transform="matrix(1,0,0,1,-85,523.3333333333115) translate(12.160493827161503 31.4444444444444)"/><use xlink:href="#V" transform="matrix(1,0,0,1,-85,523.3333333333115) translate(138.95061728395038 31.4444444444444)"/><path d="M-125 500.33v-37c0-2.76 2.24-5 5-5h310c2.76 0 5 2.24 5 5v37" fill="#ffdba9"/><path d="M-120 500.33c-2.76 0-5-2.24-5-5v-32c0-2.76 2.24-5 5-5h310c2.76 0 5 2.24 5 5v32c0 2.76-2.24 5-5 5z" stroke="#666" stroke-width="2" fill="none"/><path d="M-125 500.33v173c0 2.76 2.24 5 5 5h310c2.76 0 5-2.24 5-5v-173M-125 500.33h320" stroke="#666" stroke-width="2" fill="none"/><use xlink:href="#W" transform="matrix(1,0,0,1,-125,458.3333333333778) translate(74.04320987654407 25.4444444444444)"/><use xlink:href="#X" transform="matrix(1,0,0,1,-125,458.3333333333778) translate(179.53703703703684 25.4444444444444)"/><path d="M-540 385c0-2.76 2.24-5 5-5h320c2.76 0 5 2.24 5 5v115c-55.1-20.04-89.43-20.04-110.22-20.04-33 0-76.9 20.04-109.9 20.04-20.45 0-55.1 0-109.88-20.04z" stroke="#666" stroke-width="2" fill="#c1e4f7"/><use xlink:href="#Y" transform="matrix(1,0,0,1,-535,385) translate(35.22962962962961 49.266666666666666)"/><path d="M-380 542V510.2" stroke="#999" stroke-width="2" fill="none"/><path d="M-379 543h-2v-1h2zM-375.36 509.5h-9.28l4.64-14.28z" fill="#999"/><path d="M-374 510.5h-12l6-18.5zm-9.26-2h6.52l-3.26-10.04z" fill="#999"/><path d="M-455 205c0-2.76 2.24-5 5-5h150c2.76 0 5 2.24 5 5v110c0 2.76-2.24 5-5 5h-150c-2.76 0-5-2.24-5-5z" stroke="#666" stroke-width="2" fill="#ffeca9"/><g><use xlink:href="#Z" transform="matrix(1,0,0,1,-450,205) translate(28.209876543210342 59.4444444444444)"/></g><path d="M-375 379v-39.76" stroke="#999" stroke-width="2" fill="none"/><path d="M-374 380h-2v-1h2zM-370.36 338.5h-9.28l4.64-14.26z" fill="#999"/><path d="M-369 339.5h-12l6-18.5zm-9.26-2h6.52l-3.26-10.03z" fill="#999"/><path d="M744 841.67H544.24" stroke="#999" stroke-width="2" fill="none"/><path d="M745 842.67h-1v-2h1zM543.5 846.3l-14.26-4.63 14.26-4.64z" fill="#999"/><path d="M544.5 847.68l-18.5-6 18.5-6.03zm-12.03-6l10.03 3.25v-6.52z" fill="#999"/><path d="M825 762.43V560.8" stroke="#999" stroke-width="2" fill="none"/><path d="M825 777.43l-4.64-14.27h9.28z" fill="#999"/><path d="M825 780.67l-6-18.5h12zm-3.26-16.5l3.26 10.02 3.26-10.04zM826 559.84v.97h-2v-1.02z" fill="#999"/><path d="M-90 550h-99.5c-2.76 0-5 2.24-5 5v43c0 2.76-2.24 5-5 5h-81.26" stroke="#999" stroke-width="2" fill="none"/><path fill="#999"/><path d="M-281.5 607.63l-14.26-4.64 14.26-4.64z" fill="#999"/><path d="M-280.5 609l-18.5-6 18.5-6.02zm-12.03-6l10.03 3.25v-6.5z" fill="#999"/><defs><path fill="#999" d="M24-248c120-7 223 5 221 122C244-46 201 0 124 0H24v-248zM76-40c74 7 117-18 117-86 0-67-45-88-117-82v168" id="aa"/><path fill="#999" d="M24 0v-248h52V0H24" id="ab"/><path fill="#999" d="M199 0l-22-63H83L61 0H9l90-248h61L250 0h-51zm-33-102l-36-108c-10 38-24 72-36 108h72" id="ac"/><path fill="#999" d="M67-125c0 54 23 88 75 88 28 0 53-7 68-21v-34h-60v-39h108v91C232-14 192 4 140 4 58 4 20-42 15-125 8-236 126-280 215-234c19 10 29 26 37 47l-47 15c-11-23-29-39-63-39-53 1-75 33-75 86" id="ad"/><path fill="#999" d="M240-174c0 40-23 61-54 70L253 0h-59l-57-94H76V0H24v-248c93 4 217-23 216 74zM76-134c48-2 112 12 112-38 0-48-66-32-112-35v73" id="ae"/><path fill="#999" d="M230 0l2-204L168 0h-37L68-204 70 0H24v-248h70l56 185 57-185h69V0h-46" id="af"/><g id="a"><use transform="matrix(0.09876543209876544,0,0,0.09876543209876544,0,0)" xlink:href="#aa"/><use transform="matrix(0.09876543209876544,0,0,0.09876543209876544,25.58024691358025,0)" xlink:href="#ab"/><use transform="matrix(0.09876543209876544,0,0,0.09876543209876544,35.4567901234568,0)" xlink:href="#ac"/><use transform="matrix(0.09876543209876544,0,0,0.09876543209876544,61.03703703703705,0)" xlink:href="#ad"/><use transform="matrix(0.09876543209876544,0,0,0.09876543209876544,88.69135802469137,0)" xlink:href="#ae"/><use transform="matrix(0.09876543209876544,0,0,0.09876543209876544,114.27160493827161,0)" xlink:href="#ac"/><use transform="matrix(0.09876543209876544,0,0,0.09876543209876544,139.85185185185188,0)" xlink:href="#af"/><use transform="matrix(0.09876543209876544,0,0,0.09876543209876544,169.38271604938274,0)" xlink:href="#ac"/></g><path fill="#999" d="M275 0h-61l-44-196L126 0H64L0-248h53L97-49l45-199h58l43 199 44-199h52" id="ag"/><path fill="#999" d="M140-251c80 0 125 45 125 126S219 4 139 4C58 4 15-44 15-125s44-126 125-126zm-1 214c52 0 73-35 73-88 0-50-21-86-72-86-52 0-73 35-73 86s22 88 72 88" id="ah"/><path fill="#999" d="M195 0l-88-114-31 24V0H24v-248h52v113l112-113h60L142-143 257 0h-62" id="ai"/><path fill="#999" d="M76-208v77h127v40H76V0H24v-248h183v40H76" id="aj"/><path fill="#999" d="M24 0v-248h52v208h133V0H24" id="ak"/><g id="b"><use transform="matrix(0.09876543209876544,0,0,0.09876543209876544,0,0)" xlink:href="#ag"/><use transform="matrix(0.09876543209876544,0,0,0.09876543209876544,33.48148148148148,0)" xlink:href="#ah"/><use transform="matrix(0.09876543209876544,0,0,0.09876543209876544,61.13580246913581,0)" xlink:href="#ae"/><use transform="matrix(0.09876543209876544,0,0,0.09876543209876544,86.71604938271605,0)" xlink:href="#ai"/><use transform="matrix(0.09876543209876544,0,0,0.09876543209876544,112.2962962962963,0)" xlink:href="#aj"/><use transform="matrix(0.09876543209876544,0,0,0.09876543209876544,133.92592592592592,0)" xlink:href="#ak"/><use transform="matrix(0.09876543209876544,0,0,0.09876543209876544,155.55555555555554,0)" xlink:href="#ah"/><use transform="matrix(0.09876543209876544,0,0,0.09876543209876544,183.20987654320987,0)" xlink:href="#ag"/></g><path fill="#999" d="M182-130c37 4 62 22 62 59C244 23 116-4 24 0v-248c84 5 203-23 205 63 0 31-19 50-47 55zM76-148c40-3 101 13 101-30 0-44-60-28-101-31v61zm0 110c48-3 116 14 116-37 0-48-69-32-116-35v72" id="al"/><path fill="#999" d="M169-182c-1-43-94-46-97-3 18 66 151 10 154 114 3 95-165 93-204 36-6-8-10-19-12-30l50-8c3 46 112 56 116 5-17-69-150-10-154-114-4-87 153-88 188-35 5 8 8 18 10 28" id="am"/><g id="c"><use transform="matrix(0.09876543209876544,0,0,0.09876543209876544,0,0)" xlink:href="#al"/><use transform="matrix(0.09876543209876544,0,0,0.09876543209876544,25.58024691358025,0)" xlink:href="#ab"/><use transform="matrix(0.09876543209876544,0,0,0.09876543209876544,35.4567901234568,0)" xlink:href="#ah"/><use transform="matrix(0.09876543209876544,0,0,0.09876543209876544,63.111111111111114,0)" xlink:href="#am"/><use transform="matrix(0.09876543209876544,0,0,0.09876543209876544,86.81481481481482,0)" xlink:href="#ab"/><use transform="matrix(0.09876543209876544,0,0,0.09876543209876544,96.69135802469137,0)" xlink:href="#am"/></g><path fill="#999" d="M160-131c35 5 61 23 61 61C221 17 115-2 30 0v-248c76 3 177-17 177 60 0 33-19 50-47 57zm-97-11c50-1 110 9 110-42 0-47-63-36-110-37v79zm0 115c55-2 124 14 124-45 0-56-70-42-124-44v89" id="an"/><path fill="#999" d="M24-231v-30h32v30H24zM24 0v-190h32V0H24" id="ao"/><path fill="#999" d="M100-194c62-1 85 37 85 99 1 63-27 99-86 99S16-35 15-95c0-66 28-99 85-99zM99-20c44 1 53-31 53-75 0-43-8-75-51-75s-53 32-53 75 10 74 51 75" id="ap"/><path fill="#999" d="M24 0v-261h32V0H24" id="aq"/><path fill="#999" d="M177-190C167-65 218 103 67 71c-23-6-38-20-44-43l32-5c15 47 100 32 89-28v-30C133-14 115 1 83 1 29 1 15-40 15-95c0-56 16-97 71-98 29-1 48 16 59 35 1-10 0-23 2-32h30zM94-22c36 0 50-32 50-73 0-42-14-75-50-75-39 0-46 34-46 75s6 73 46 73" id="ar"/><path fill="#999" d="M34 0v-190h32V0H34zM24-211c8-23 27-35 38-54h36v5l-58 49H24" id="as"/><path fill="#999" d="M141-36C126-15 110 5 73 4 37 3 15-17 15-53c-1-64 63-63 125-63 3-35-9-54-41-54-24 1-41 7-42 31l-33-3c5-37 33-52 76-52 45 0 72 20 72 64v82c-1 20 7 32 28 27v20c-31 9-61-2-59-35zM48-53c0 20 12 33 32 33 41-3 63-29 60-74-43 2-92-5-92 41" id="at"/><g id="d"><use transform="matrix(0.06172839506172778,0,0,0.06172839506172778,0,0)" xlink:href="#an"/><use transform="matrix(0.06172839506172778,0,0,0.06172839506172778,14.814814814814667,0)" xlink:href="#ao"/><use transform="matrix(0.06172839506172778,0,0,0.06172839506172778,19.691358024691162,0)" xlink:href="#ap"/><use transform="matrix(0.06172839506172778,0,0,0.06172839506172778,32.03703703703672,0)" xlink:href="#aq"/><use transform="matrix(0.06172839506172778,0,0,0.06172839506172778,36.91358024691321,0)" xlink:href="#ap"/><use transform="matrix(0.06172839506172778,0,0,0.06172839506172778,49.25925925925877,0)" xlink:href="#ar"/><use transform="matrix(0.06172839506172778,0,0,0.06172839506172778,61.604938271604325,0)" xlink:href="#as"/><use transform="matrix(0.06172839506172778,0,0,0.06172839506172778,67.7777777777771,0)" xlink:href="#at"/></g><path fill="#999" d="M85-194c31 0 48 13 60 33l-1-100h32l1 261h-30c-2-10 0-23-3-31C134-8 116 4 85 4 32 4 16-35 15-94c0-66 23-100 70-100zm9 24c-40 0-46 34-46 75 0 40 6 74 45 74 42 0 51-32 51-76 0-42-9-74-50-73" id="au"/><path fill="#999" d="M100-194c63 0 86 42 84 106H49c0 40 14 67 53 68 26 1 43-12 49-29l28 8c-11 28-37 45-77 45C44 4 14-33 15-96c1-61 26-98 85-98zm52 81c6-60-76-77-97-28-3 7-6 17-6 28h103" id="av"/><g id="e"><use transform="matrix(0.06172839506172778,0,0,0.06172839506172778,0,0)" xlink:href="#au"/><use transform="matrix(0.06172839506172778,0,0,0.06172839506172778,12.345679012345556,0)" xlink:href="#av"/></g><path fill="#999" d="M135-143c-3-34-86-38-87 0 15 53 115 12 119 90S17 21 10-45l28-5c4 36 97 45 98 0-10-56-113-15-118-90-4-57 82-63 122-42 12 7 21 19 24 35" id="aw"/><path fill="#999" d="M59-47c-2 24 18 29 38 22v24C64 9 27 4 27-40v-127H5v-23h24l9-43h21v43h35v23H59v120" id="ax"/><path fill="#999" d="M210-169c-67 3-38 105-44 169h-31v-121c0-29-5-50-35-48C34-165 62-65 56 0H25l-1-190h30c1 10-1 24 2 32 10-44 99-50 107 0 11-21 27-35 58-36 85-2 47 119 55 194h-31v-121c0-29-5-49-35-48" id="ay"/><g id="f"><use transform="matrix(0.06172839506172778,0,0,0.06172839506172778,0,0)" xlink:href="#aw"/><use transform="matrix(0.06172839506172778,0,0,0.06172839506172778,11.111111111111,0)" xlink:href="#ao"/><use transform="matrix(0.06172839506172778,0,0,0.06172839506172778,15.987654320987495,0)" xlink:href="#aw"/><use transform="matrix(0.06172839506172778,0,0,0.06172839506172778,27.098765432098496,0)" xlink:href="#ax"/><use transform="matrix(0.06172839506172778,0,0,0.06172839506172778,33.271604938271274,0)" xlink:href="#av"/><use transform="matrix(0.06172839506172778,0,0,0.06172839506172778,45.61728395061683,0)" xlink:href="#ay"/><use transform="matrix(0.06172839506172778,0,0,0.06172839506172778,64.07407407407344,0)" xlink:href="#at"/><use transform="matrix(0.06172839506172778,0,0,0.06172839506172778,76.41975308641899,0)" xlink:href="#aw"/></g><path fill="#999" d="M16-82v-28h88v28H16" id="az"/><use transform="matrix(0.06172839506172778,0,0,0.06172839506172778,0,0)" xlink:href="#az" id="g"/><path fill="#999" d="M143 4C61 4 22-44 18-125c-5-107 100-154 193-111 17 8 29 25 37 43l-32 9c-13-25-37-40-76-40-61 0-88 39-88 99 0 61 29 100 91 101 35 0 62-11 79-27v-45h-74v-28h105v86C228-13 192 4 143 4" id="aA"/><path fill="#999" d="M114-163C36-179 61-72 57 0H25l-1-190h30c1 12-1 29 2 39 6-27 23-49 58-41v29" id="aB"/><path fill="#999" d="M84 4C-5 8 30-112 23-190h32v120c0 31 7 50 39 49 72-2 45-101 50-169h31l1 190h-30c-1-10 1-25-2-33-11 22-28 36-60 37" id="aC"/><path fill="#999" d="M115-194c55 1 70 41 70 98S169 2 115 4C84 4 66-9 55-30l1 105H24l-1-265h31l2 30c10-21 28-34 59-34zm-8 174c40 0 45-34 45-75s-6-73-45-74c-42 0-51 32-51 76 0 43 10 73 51 73" id="aD"/><g id="h"><use transform="matrix(0.06172839506172778,0,0,0.06172839506172778,0,0)" xlink:href="#aA"/><use transform="matrix(0.06172839506172778,0,0,0.06172839506172778,17.28395061728378,0)" xlink:href="#aB"/><use transform="matrix(0.06172839506172778,0,0,0.06172839506172778,24.629629629629385,0)" xlink:href="#aC"/><use transform="matrix(0.06172839506172778,0,0,0.06172839506172778,36.97530864197494,0)" xlink:href="#aD"/><use transform="matrix(0.06172839506172778,0,0,0.06172839506172778,49.3209876543205,0)" xlink:href="#ap"/></g><path fill="#999" d="M101-251c82-7 93 87 43 132L82-64C71-53 59-42 53-27h129V0H18c2-99 128-94 128-182 0-28-16-43-45-43s-46 15-49 41l-32-3c6-41 34-60 81-64" id="aE"/><use transform="matrix(0.06172839506172778,0,0,0.06172839506172778,0,0)" xlink:href="#aE" id="i"/><path fill="#999" d="M32 76v-337h29V76H32" id="aF"/><use transform="matrix(0.06172839506172778,0,0,0.06172839506172778,0,0)" xlink:href="#aF" id="j"/><path fill="#999" d="M153-248C145-148 188 4 80 4 36 3 13-21 6-62l32-5c4 25 16 42 43 43 27 0 39-20 39-49v-147H72v-28h81" id="aG"/><path fill="#999" d="M117-194c89-4 53 116 60 194h-32v-121c0-31-8-49-39-48C34-167 62-67 57 0H25l-1-190h30c1 10-1 24 2 32 11-22 29-35 61-36" id="aH"/><path fill="#999" d="M179-190L93 31C79 59 56 82 12 73V49c39 6 53-20 64-50L1-190h34L92-34l54-156h33" id="aI"/><g id="k"><use transform="matrix(0.06172839506172778,0,0,0.06172839506172778,0,0)" xlink:href="#aG"/><use transform="matrix(0.06172839506172778,0,0,0.06172839506172778,11.111111111111,0)" xlink:href="#at"/><use transform="matrix(0.06172839506172778,0,0,0.06172839506172778,23.456790123456557,0)" xlink:href="#aH"/><use transform="matrix(0.06172839506172778,0,0,0.06172839506172778,35.80246913580211,0)" xlink:href="#aC"/><use transform="matrix(0.06172839506172778,0,0,0.06172839506172778,48.14814814814767,0)" xlink:href="#at"/><use transform="matrix(0.06172839506172778,0,0,0.06172839506172778,60.493827160493225,0)" xlink:href="#aB"/><use transform="matrix(0.06172839506172778,0,0,0.06172839506172778,67.83950617283884,0)" xlink:href="#aI"/></g><path fill="#999" d="M68-38c1 34 0 65-14 84H32c9-13 17-26 17-46H33v-38h35" id="aJ"/><g id="l"><use transform="matrix(0.06172839506172778,0,0,0.06172839506172778,0,0)" xlink:href="#aE"/><use transform="matrix(0.06172839506172778,0,0,0.06172839506172778,12.345679012345556,0)" xlink:href="#aE"/><use transform="matrix(0.06172839506172778,0,0,0.06172839506172778,24.691358024691112,0)" xlink:href="#aJ"/></g><path fill="#999" d="M101-251c68 0 85 55 85 127S166 4 100 4C33 4 14-52 14-124c0-73 17-127 87-127zm-1 229c47 0 54-49 54-102s-4-102-53-102c-51 0-55 48-55 102 0 53 5 102 54 102" id="aK"/><path fill="#999" d="M27 0v-27h64v-190l-56 39v-29l58-41h29v221h61V0H27" id="aL"/><path fill="#999" d="M99-251c64 0 84 50 84 122C183-37 130 33 47-8c-14-7-20-23-25-40l30-5c6 39 69 39 84 7 9-19 16-44 16-74-10 22-31 35-62 35-49 0-73-33-73-83 0-54 28-83 82-83zm-1 141c31-1 51-18 51-49 0-36-14-67-51-67-34 0-49 23-49 58 0 34 15 58 49 58" id="aM"/><g id="m"><use transform="matrix(0.06172839506172778,0,0,0.06172839506172778,0,0)" xlink:href="#aE"/><use transform="matrix(0.06172839506172778,0,0,0.06172839506172778,12.345679012345556,0)" xlink:href="#aK"/><use transform="matrix(0.06172839506172778,0,0,0.06172839506172778,24.691358024691112,0)" xlink:href="#aL"/><use transform="matrix(0.06172839506172778,0,0,0.06172839506172778,37.03703703703667,0)" xlink:href="#aM"/></g><path fill="#333" d="M195-6C206 82 75 100 31 46c-4-6-6-13-8-21l49-6c3 16 16 24 34 25 40 0 42-37 40-79-11 22-30 35-61 35-53 0-70-43-70-97 0-56 18-96 73-97 30 0 46 14 59 34l2-30h47zm-90-29c32 0 41-27 41-63 0-35-9-62-40-62-32 0-39 29-40 63 0 36 9 62 39 62" id="aN"/><path fill="#333" d="M137-138c1-29-70-34-71-4 15 46 118 7 119 86 1 83-164 76-172 9l43-7c4 19 20 25 44 25 33 8 57-30 24-41C81-84 22-81 20-136c-2-80 154-74 161-7" id="aO"/><path fill="#333" d="M147 0L96-86 75-71V0H25v-261h50v150l67-79h53l-66 74L201 0h-54" id="aP"/><path fill="#333" d="M-4 44V30h207v14H-4" id="aQ"/><path fill="#333" d="M121-226c-27-7-43 5-38 36h38v33H83V0H34v-157H6v-33h28c-9-59 32-81 87-68v32" id="aR"/><path fill="#333" d="M25-224v-37h50v37H25zM25 0v-190h50V0H25" id="aS"/><path fill="#333" d="M25 0v-261h50V0H25" id="aT"/><path fill="#333" d="M115-3C79 11 28 4 28-45v-112H4v-33h27l15-45h31v45h36v33H77v99c-1 23 16 31 38 25v30" id="aU"/><path fill="#333" d="M185-48c-13 30-37 53-82 52C43 2 14-33 14-96s30-98 90-98c62 0 83 45 84 108H66c0 31 8 55 39 56 18 0 30-7 34-22zm-45-69c5-46-57-63-70-21-2 6-4 13-4 21h74" id="aV"/><path fill="#333" d="M135-150c-39-12-60 13-60 57V0H25l-1-190h47c2 13-1 29 3 40 6-28 27-53 61-41v41" id="aW"/><path fill="#333" d="M24 0v-54h51V0H24" id="aX"/><path fill="#333" d="M135-194c53 0 70 44 70 98 0 56-19 98-73 100-31 1-45-17-59-34 3 33 2 69 2 105H25l-1-265h48c2 10 0 23 3 31 11-24 29-35 60-35zM114-30c33 0 39-31 40-66 0-38-9-64-40-64-56 0-55 130 0 130" id="aY"/><path fill="#333" d="M123 10C108 53 80 86 19 72V37c35 8 53-11 59-39L3-190h52l48 148c12-52 28-100 44-148h51" id="aZ"/><g id="n"><use transform="matrix(0.06172839506172778,0,0,0.06172839506172778,0,0)" xlink:href="#aN"/><use transform="matrix(0.06172839506172778,0,0,0.06172839506172778,13.518518518518384,0)" xlink:href="#aO"/><use transform="matrix(0.06172839506172778,0,0,0.06172839506172778,25.86419753086394,0)" xlink:href="#aP"/><use transform="matrix(0.06172839506172778,0,0,0.06172839506172778,38.209876543209496,0)" xlink:href="#aQ"/><use transform="matrix(0.06172839506172778,0,0,0.06172839506172778,50.55555555555505,0)" xlink:href="#aR"/><use transform="matrix(0.06172839506172778,0,0,0.06172839506172778,57.90123456790066,0)" xlink:href="#aS"/><use transform="matrix(0.06172839506172778,0,0,0.06172839506172778,64.07407407407344,0)" xlink:href="#aT"/><use transform="matrix(0.06172839506172778,0,0,0.06172839506172778,70.24691358024621,0)" xlink:href="#aU"/><use transform="matrix(0.06172839506172778,0,0,0.06172839506172778,77.59259259259181,0)" xlink:href="#aV"/><use transform="matrix(0.06172839506172778,0,0,0.06172839506172778,89.93827160493737,0)" xlink:href="#aW"/><use transform="matrix(0.06172839506172778,0,0,0.06172839506172778,97.3456790123447,0)" xlink:href="#aX"/><use transform="matrix(0.06172839506172778,0,0,0.06172839506172778,103.51851851851748,0)" xlink:href="#aY"/><use transform="matrix(0.06172839506172778,0,0,0.06172839506172778,117.03703703703587,0)" xlink:href="#aZ"/></g><path fill="#333" d="M135-194c87-1 58 113 63 194h-50c-7-57 23-157-34-157-59 0-34 97-39 157H25l-1-190h47c2 12-1 28 3 38 12-26 28-41 61-42" id="ba"/><path fill="#333" d="M133-34C117-15 103 5 69 4 32 3 11-16 11-54c-1-60 55-63 116-61 1-26-3-47-28-47-18 1-26 9-28 27l-52-2c7-38 36-58 82-57s74 22 75 68l1 82c-1 14 12 18 25 15v27c-30 8-71 5-69-32zm-48 3c29 0 43-24 42-57-32 0-66-3-65 30 0 17 8 27 23 27" id="bb"/><path fill="#333" d="M190-63c-7 42-38 67-86 67-59 0-84-38-90-98-12-110 154-137 174-36l-49 2c-2-19-15-32-35-32-30 0-35 28-38 64-6 74 65 87 74 30" id="bc"/><path fill="#333" d="M110-194c64 0 96 36 96 99 0 64-35 99-97 99-61 0-95-36-95-99 0-62 34-99 96-99zm-1 164c35 0 45-28 45-65 0-40-10-65-43-65-34 0-45 26-45 65 0 36 10 65 43 65" id="bd"/><path fill="#333" d="M128 0H69L1-190h53L99-40l48-150h52" id="be"/><g id="o"><use transform="matrix(0.06172839506172778,0,0,0.06172839506172778,0,0)" xlink:href="#aS"/><use transform="matrix(0.06172839506172778,0,0,0.06172839506172778,6.172839506172778,0)" xlink:href="#ba"/><use transform="matrix(0.06172839506172778,0,0,0.06172839506172778,19.691358024691162,0)" xlink:href="#aU"/><use transform="matrix(0.06172839506172778,0,0,0.06172839506172778,27.037037037036768,0)" xlink:href="#aV"/><use transform="matrix(0.06172839506172778,0,0,0.06172839506172778,39.382716049382324,0)" xlink:href="#aW"/><use transform="matrix(0.06172839506172778,0,0,0.06172839506172778,48.024691358024214,0)" xlink:href="#bb"/><use transform="matrix(0.06172839506172778,0,0,0.06172839506172778,60.37037037036977,0)" xlink:href="#bc"/><use transform="matrix(0.06172839506172778,0,0,0.06172839506172778,72.71604938271533,0)" xlink:href="#aU"/><use transform="matrix(0.06172839506172778,0,0,0.06172839506172778,80.06172839506092,0)" xlink:href="#aS"/><use transform="matrix(0.06172839506172778,0,0,0.06172839506172778,86.2345679012337,0)" xlink:href="#bd"/><use transform="matrix(0.06172839506172778,0,0,0.06172839506172778,99.7530864197521,0)" xlink:href="#ba"/><use transform="matrix(0.06172839506172778,0,0,0.06172839506172778,113.27160493827049,0)" xlink:href="#aO"/><use transform="matrix(0.06172839506172778,0,0,0.06172839506172778,125.61728395061604,0)" xlink:href="#aX"/><use transform="matrix(0.06172839506172778,0,0,0.06172839506172778,131.79012345678882,0)" xlink:href="#aU"/><use transform="matrix(0.06172839506172778,0,0,0.06172839506172778,139.13580246913443,0)" xlink:href="#aO"/><use transform="matrix(0.06172839506172778,0,0,0.06172839506172778,151.48148148148,0)" xlink:href="#be"/></g><path fill="#333" d="M67-125c0 53 21 87 73 88 37 1 54-22 65-47l45 17C233-25 199 4 140 4 58 4 20-42 15-125 8-235 124-281 211-232c18 10 29 29 36 50l-46 12c-8-25-30-41-62-41-52 0-71 34-72 86" id="bf"/><path fill="#333" d="M186 0v-106H76V0H24v-248h52v99h110v-99h50V0h-50" id="bg"/><path fill="#333" d="M24 0v-248h195v40H76v63h132v40H76v65h150V0H24" id="bh"/><path fill="#333" d="M230 0l2-204L168 0h-37L68-204 70 0H24v-248h70l56 185 57-185h69V0h-46" id="bi"/><path fill="#333" d="M182-130c37 4 62 22 62 59C244 23 116-4 24 0v-248c84 5 203-23 205 63 0 31-19 50-47 55zM76-148c40-3 101 13 101-30 0-44-60-28-101-31v61zm0 110c48-3 116 14 116-37 0-48-69-32-116-35v72" id="bj"/><path fill="#333" d="M24 0v-248h52v208h133V0H24" id="bk"/><g id="p"><use transform="matrix(0.06172839506172778,0,0,0.06172839506172778,0,0)" xlink:href="#bf"/><use transform="matrix(0.06172839506172778,0,0,0.06172839506172778,15.987654320987495,0)" xlink:href="#bg"/><use transform="matrix(0.06172839506172778,0,0,0.06172839506172778,31.97530864197499,0)" xlink:href="#bh"/><use transform="matrix(0.06172839506172778,0,0,0.06172839506172778,46.79012345678966,0)" xlink:href="#bi"/><use transform="matrix(0.06172839506172778,0,0,0.06172839506172778,65.24691358024626,0)" xlink:href="#bj"/><use transform="matrix(0.06172839506172778,0,0,0.06172839506172778,81.23456790123376,0)" xlink:href="#bk"/></g><path fill="#333" d="M199 0l-22-63H83L61 0H9l90-248h61L250 0h-51zm-33-102l-36-108c-10 38-24 72-36 108h72" id="bl"/><g id="q"><use transform="matrix(0.06172839506172778,0,0,0.06172839506172778,0,0)" xlink:href="#bl"/><use transform="matrix(0.06172839506172778,0,0,0.06172839506172778,15.987654320987495,0)" xlink:href="#aO"/><use transform="matrix(0.06172839506172778,0,0,0.06172839506172778,28.33333333333305,0)" xlink:href="#aO"/><use transform="matrix(0.06172839506172778,0,0,0.06172839506172778,40.67901234567861,0)" xlink:href="#bb"/><use transform="matrix(0.06172839506172778,0,0,0.06172839506172778,53.024691358024164,0)" xlink:href="#aZ"/><use transform="matrix(0.06172839506172778,0,0,0.06172839506172778,65.37037037036973,0)" xlink:href="#aO"/></g><g id="r"><use transform="matrix(0.06172839506172778,0,0,0.06172839506172778,0,0)" xlink:href="#aO"/><use transform="matrix(0.06172839506172778,0,0,0.06172839506172778,12.345679012345556,0)" xlink:href="#bd"/><use transform="matrix(0.06172839506172778,0,0,0.06172839506172778,25.86419753086394,0)" xlink:href="#aW"/><use transform="matrix(0.06172839506172778,0,0,0.06172839506172778,34.50617283950583,0)" xlink:href="#aU"/></g><path fill="#333" d="M14-72v-43h91v43H14" id="bm"/><path fill="#333" d="M85 4C-2 5 27-109 22-190h50c7 57-23 150 33 157 60-5 35-97 40-157h50l1 190h-47c-2-12 1-28-3-38-12 25-28 42-61 42" id="bn"/><g id="s"><use transform="matrix(0.06172839506172778,0,0,0.06172839506172778,0,0)" xlink:href="#bm"/><use transform="matrix(0.06172839506172778,0,0,0.06172839506172778,7.345679012345606,0)" xlink:href="#bn"/></g><path fill="#333" d="M84 4C32 4 15-41 15-95c0-55 18-99 73-99 29 0 47 12 58 34l2-30h48l-1 265h-49V-32C136-9 114 4 84 4zm21-34c32 0 41-29 41-66 0-36-9-64-40-64-33 0-39 30-40 65 0 43 13 65 39 65" id="bo"/><g id="t"><use transform="matrix(0.06172839506172778,0,0,0.06172839506172778,0,0)" xlink:href="#bn"/><use transform="matrix(0.06172839506172778,0,0,0.06172839506172778,13.518518518518384,0)" xlink:href="#ba"/><use transform="matrix(0.06172839506172778,0,0,0.06172839506172778,27.037037037036768,0)" xlink:href="#aS"/><use transform="matrix(0.06172839506172778,0,0,0.06172839506172778,33.209876543209546,0)" xlink:href="#bo"/><use transform="matrix(0.06172839506172778,0,0,0.06172839506172778,46.72839506172793,0)" xlink:href="#bn"/><use transform="matrix(0.06172839506172778,0,0,0.06172839506172778,60.246913580246314,0)" xlink:href="#aV"/><use transform="matrix(0.06172839506172778,0,0,0.06172839506172778,72.59259259259187,0)" xlink:href="#aQ"/><use transform="matrix(0.06172839506172778,0,0,0.06172839506172778,84.93827160493743,0)" xlink:href="#aU"/><use transform="matrix(0.06172839506172778,0,0,0.06172839506172778,92.28395061728304,0)" xlink:href="#bb"/><use transform="matrix(0.06172839506172778,0,0,0.06172839506172778,104.6296296296286,0)" xlink:href="#aW"/><use transform="matrix(0.06172839506172778,0,0,0.06172839506172778,113.27160493827049,0)" xlink:href="#aN"/><use transform="matrix(0.06172839506172778,0,0,0.06172839506172778,126.79012345678889,0)" xlink:href="#aV"/><use transform="matrix(0.06172839506172778,0,0,0.06172839506172778,139.13580246913443,0)" xlink:href="#aU"/><use transform="matrix(0.06172839506172778,0,0,0.06172839506172778,146.48148148148005,0)" xlink:href="#aO"/><use transform="matrix(0.06172839506172778,0,0,0.06172839506172778,158.8271604938256,0)" xlink:href="#aX"/><use transform="matrix(0.06172839506172778,0,0,0.06172839506172778,164.99999999999838,0)" xlink:href="#aU"/><use transform="matrix(0.06172839506172778,0,0,0.06172839506172778,172.345679012344,0)" xlink:href="#aO"/><use transform="matrix(0.06172839506172778,0,0,0.06172839506172778,184.69135802468955,0)" xlink:href="#be"/></g><path fill="#333" d="M114-157C55-157 80-60 75 0H25v-261h50l-1 109c12-26 28-41 61-42 86-1 58 113 63 194h-50c-7-57 23-157-34-157" id="bp"/><path fill="#333" d="M220-157c-53 9-28 100-34 157h-49v-107c1-27-5-49-29-50C55-147 81-57 75 0H25l-1-190h47c2 12-1 28 3 38 10-53 101-56 108 0 13-22 24-43 59-42 82 1 51 116 57 194h-49v-107c-1-25-5-48-29-50" id="bq"/><path fill="#333" d="M135-194c52 0 70 43 70 98 0 56-19 99-73 100-30 1-46-15-58-35L72 0H24l1-261h50v104c11-23 29-37 60-37zM114-30c31 0 40-27 40-66 0-37-7-63-39-63s-41 28-41 65c0 36 8 64 40 64" id="br"/><path fill="#333" d="M88-194c31-1 46 15 58 34l-1-101h50l1 261h-48c-2-10 0-23-3-31C134-8 116 4 84 4 32 4 16-41 15-95c0-56 19-97 73-99zm17 164c33 0 40-30 41-66 1-37-9-64-41-64s-38 30-39 65c0 43 13 65 39 65" id="bs"/><g id="u"><use transform="matrix(0.06172839506172778,0,0,0.06172839506172778,0,0)" xlink:href="#bc"/><use transform="matrix(0.06172839506172778,0,0,0.06172839506172778,12.345679012345556,0)" xlink:href="#bp"/><use transform="matrix(0.06172839506172778,0,0,0.06172839506172778,25.86419753086394,0)" xlink:href="#aV"/><use transform="matrix(0.06172839506172778,0,0,0.06172839506172778,38.209876543209496,0)" xlink:href="#bq"/><use transform="matrix(0.06172839506172778,0,0,0.06172839506172778,57.962962962962386,0)" xlink:href="#br"/><use transform="matrix(0.06172839506172778,0,0,0.06172839506172778,71.48148148148077,0)" xlink:href="#aT"/><use transform="matrix(0.06172839506172778,0,0,0.06172839506172778,77.65432098765355,0)" xlink:href="#aQ"/><use transform="matrix(0.06172839506172778,0,0,0.06172839506172778,89.9999999999991,0)" xlink:href="#aS"/><use transform="matrix(0.06172839506172778,0,0,0.06172839506172778,96.17283950617188,0)" xlink:href="#bs"/><use transform="matrix(0.06172839506172778,0,0,0.06172839506172778,109.69135802469026,0)" xlink:href="#aQ"/><use transform="matrix(0.06172839506172778,0,0,0.06172839506172778,122.03703703703582,0)" xlink:href="#aU"/><use transform="matrix(0.06172839506172778,0,0,0.06172839506172778,129.38271604938143,0)" xlink:href="#bd"/><use transform="matrix(0.06172839506172778,0,0,0.06172839506172778,142.90123456789982,0)" xlink:href="#aQ"/><use transform="matrix(0.06172839506172778,0,0,0.06172839506172778,155.24691358024538,0)" xlink:href="#bb"/><use transform="matrix(0.06172839506172778,0,0,0.06172839506172778,167.59259259259093,0)" xlink:href="#bc"/><use transform="matrix(0.06172839506172778,0,0,0.06172839506172778,179.9382716049365,0)" xlink:href="#bc"/><use transform="matrix(0.06172839506172778,0,0,0.06172839506172778,192.28395061728204,0)" xlink:href="#aV"/><use transform="matrix(0.06172839506172778,0,0,0.06172839506172778,204.6296296296276,0)" xlink:href="#aO"/><use transform="matrix(0.06172839506172778,0,0,0.06172839506172778,216.97530864197316,0)" xlink:href="#aO"/><use transform="matrix(0.06172839506172778,0,0,0.06172839506172778,229.3209876543187,0)" xlink:href="#aS"/><use transform="matrix(0.06172839506172778,0,0,0.06172839506172778,235.4938271604915,0)" xlink:href="#bd"/><use transform="matrix(0.06172839506172778,0,0,0.06172839506172778,249.01234567900988,0)" xlink:href="#ba"/><use transform="matrix(0.06172839506172778,0,0,0.06172839506172778,262.5308641975283,0)" xlink:href="#aQ"/><use transform="matrix(0.06172839506172778,0,0,0.06172839506172778,274.87654320987383,0)" xlink:href="#aS"/><use transform="matrix(0.06172839506172778,0,0,0.06172839506172778,281.0493827160466,0)" xlink:href="#bs"/><use transform="matrix(0.06172839506172778,0,0,0.06172839506172778,294.56790123456494,0)" xlink:href="#aX"/><use transform="matrix(0.06172839506172778,0,0,0.06172839506172778,300.7407407407377,0)" xlink:href="#aY"/><use transform="matrix(0.06172839506172778,0,0,0.06172839506172778,314.25925925925605,0)" xlink:href="#aZ"/></g><path d="M85 4C-2 5 27-109 22-190h50c7 57-23 150 33 157 60-5 35-97 40-157h50l1 190h-47c-2-12 1-28-3-38-12 25-28 42-61 42" id="bt"/><path d="M135-194c87-1 58 113 63 194h-50c-7-57 23-157-34-157-59 0-34 97-39 157H25l-1-190h47c2 12-1 28 3 38 12-26 28-41 61-42" id="bu"/><path d="M25-224v-37h50v37H25zM25 0v-190h50V0H25" id="bv"/><path d="M84 4C32 4 15-41 15-95c0-55 18-99 73-99 29 0 47 12 58 34l2-30h48l-1 265h-49V-32C136-9 114 4 84 4zm21-34c32 0 41-29 41-66 0-36-9-64-40-64-33 0-39 30-40 65 0 43 13 65 39 65" id="bw"/><path d="M185-48c-13 30-37 53-82 52C43 2 14-33 14-96s30-98 90-98c62 0 83 45 84 108H66c0 31 8 55 39 56 18 0 30-7 34-22zm-45-69c5-46-57-63-70-21-2 6-4 13-4 21h74" id="bx"/><path d="M-4 44V30h207v14H-4" id="by"/><path d="M115-3C79 11 28 4 28-45v-112H4v-33h27l15-45h31v45h36v33H77v99c-1 23 16 31 38 25v30" id="bz"/><path d="M133-34C117-15 103 5 69 4 32 3 11-16 11-54c-1-60 55-63 116-61 1-26-3-47-28-47-18 1-26 9-28 27l-52-2c7-38 36-58 82-57s74 22 75 68l1 82c-1 14 12 18 25 15v27c-30 8-71 5-69-32zm-48 3c29 0 43-24 42-57-32 0-66-3-65 30 0 17 8 27 23 27" id="bA"/><path d="M135-150c-39-12-60 13-60 57V0H25l-1-190h47c2 13-1 29 3 40 6-28 27-53 61-41v41" id="bB"/><path d="M195-6C206 82 75 100 31 46c-4-6-6-13-8-21l49-6c3 16 16 24 34 25 40 0 42-37 40-79-11 22-30 35-61 35-53 0-70-43-70-97 0-56 18-96 73-97 30 0 46 14 59 34l2-30h47zm-90-29c32 0 41-27 41-63 0-35-9-62-40-62-32 0-39 29-40 63 0 36 9 62 39 62" id="bC"/><path d="M137-138c1-29-70-34-71-4 15 46 118 7 119 86 1 83-164 76-172 9l43-7c4 19 20 25 44 25 33 8 57-30 24-41C81-84 22-81 20-136c-2-80 154-74 161-7" id="bD"/><path d="M190-63c-7 42-38 67-86 67-59 0-84-38-90-98-12-110 154-137 174-36l-49 2c-2-19-15-32-35-32-30 0-35 28-38 64-6 74 65 87 74 30" id="bE"/><path d="M110-194c64 0 96 36 96 99 0 64-35 99-97 99-61 0-95-36-95-99 0-62 34-99 96-99zm-1 164c35 0 45-28 45-65 0-40-10-65-43-65-34 0-45 26-45 65 0 36 10 65 43 65" id="bF"/><path d="M24 0v-54h51V0H24" id="bG"/><path d="M128 0H69L1-190h53L99-40l48-150h52" id="bH"/><g id="v"><use transform="matrix(0.05925925925925927,0,0,0.05925925925925927,0,0)" xlink:href="#bt"/><use transform="matrix(0.05925925925925927,0,0,0.05925925925925927,12.97777777777778,0)" xlink:href="#bu"/><use transform="matrix(0.05925925925925927,0,0,0.05925925925925927,25.95555555555556,0)" xlink:href="#bv"/><use transform="matrix(0.05925925925925927,0,0,0.05925925925925927,31.881481481481487,0)" xlink:href="#bw"/><use transform="matrix(0.05925925925925927,0,0,0.05925925925925927,44.85925925925927,0)" xlink:href="#bt"/><use transform="matrix(0.05925925925925927,0,0,0.05925925925925927,57.83703703703705,0)" xlink:href="#bx"/><use transform="matrix(0.05925925925925927,0,0,0.05925925925925927,69.6888888888889,0)" xlink:href="#by"/><use transform="matrix(0.05925925925925927,0,0,0.05925925925925927,81.54074074074074,0)" xlink:href="#bz"/><use transform="matrix(0.05925925925925927,0,0,0.05925925925925927,88.5925925925926,0)" xlink:href="#bA"/><use transform="matrix(0.05925925925925927,0,0,0.05925925925925927,100.44444444444444,0)" xlink:href="#bB"/><use transform="matrix(0.05925925925925927,0,0,0.05925925925925927,108.74074074074073,0)" xlink:href="#bC"/><use transform="matrix(0.05925925925925927,0,0,0.05925925925925927,121.71851851851851,0)" xlink:href="#bx"/><use transform="matrix(0.05925925925925927,0,0,0.05925925925925927,133.57037037037037,0)" xlink:href="#bz"/><use transform="matrix(0.05925925925925927,0,0,0.05925925925925927,140.62222222222223,0)" xlink:href="#bD"/><use transform="matrix(0.05925925925925927,0,0,0.05925925925925927,152.47407407407408,0)" xlink:href="#by"/><use transform="matrix(0.05925925925925927,0,0,0.05925925925925927,164.32592592592593,0)" xlink:href="#bA"/><use transform="matrix(0.05925925925925927,0,0,0.05925925925925927,176.17777777777778,0)" xlink:href="#bE"/><use transform="matrix(0.05925925925925927,0,0,0.05925925925925927,188.02962962962962,0)" xlink:href="#bE"/><use transform="matrix(0.05925925925925927,0,0,0.05925925925925927,199.88148148148147,0)" xlink:href="#bx"/><use transform="matrix(0.05925925925925927,0,0,0.05925925925925927,211.73333333333332,0)" xlink:href="#bD"/><use transform="matrix(0.05925925925925927,0,0,0.05925925925925927,223.58518518518517,0)" xlink:href="#bD"/><use transform="matrix(0.05925925925925927,0,0,0.05925925925925927,235.43703703703702,0)" xlink:href="#bv"/><use transform="matrix(0.05925925925925927,0,0,0.05925925925925927,241.36296296296294,0)" xlink:href="#bF"/><use transform="matrix(0.05925925925925927,0,0,0.05925925925925927,254.34074074074073,0)" xlink:href="#bu"/><use transform="matrix(0.05925925925925927,0,0,0.05925925925925927,267.3185185185185,0)" xlink:href="#bG"/><use transform="matrix(0.05925925925925927,0,0,0.05925925925925927,273.2444444444444,0)" xlink:href="#bz"/><use transform="matrix(0.05925925925925927,0,0,0.05925925925925927,280.29629629629625,0)" xlink:href="#bD"/><use transform="matrix(0.05925925925925927,0,0,0.05925925925925927,292.1481481481481,0)" xlink:href="#bH"/></g><g id="w"><use transform="matrix(0.05925925925925927,0,0,0.05925925925925927,0,0)" xlink:href="#bb"/><use transform="matrix(0.05925925925925927,0,0,0.05925925925925927,11.851851851851853,0)" xlink:href="#bc"/><use transform="matrix(0.05925925925925927,0,0,0.05925925925925927,23.703703703703706,0)" xlink:href="#bc"/><use transform="matrix(0.05925925925925927,0,0,0.05925925925925927,35.55555555555556,0)" xlink:href="#aV"/><use transform="matrix(0.05925925925925927,0,0,0.05925925925925927,47.40740740740741,0)" xlink:href="#aO"/><use transform="matrix(0.05925925925925927,0,0,0.05925925925925927,59.25925925925927,0)" xlink:href="#aO"/><use transform="matrix(0.05925925925925927,0,0,0.05925925925925927,71.11111111111111,0)" xlink:href="#aS"/><use transform="matrix(0.05925925925925927,0,0,0.05925925925925927,77.03703703703704,0)" xlink:href="#bd"/><use transform="matrix(0.05925925925925927,0,0,0.05925925925925927,90.01481481481481,0)" xlink:href="#ba"/><use transform="matrix(0.05925925925925927,0,0,0.05925925925925927,102.99259259259259,0)" xlink:href="#aQ"/><use transform="matrix(0.05925925925925927,0,0,0.05925925925925927,114.84444444444443,0)" xlink:href="#aU"/><use transform="matrix(0.05925925925925927,0,0,0.05925925925925927,121.89629629629628,0)" xlink:href="#bd"/><use transform="matrix(0.05925925925925927,0,0,0.05925925925925927,134.87407407407406,0)" xlink:href="#aQ"/><use transform="matrix(0.05925925925925927,0,0,0.05925925925925927,146.7259259259259,0)" xlink:href="#aN"/><use transform="matrix(0.05925925925925927,0,0,0.05925925925925927,159.7037037037037,0)" xlink:href="#aV"/><use transform="matrix(0.05925925925925927,0,0,0.05925925925925927,171.55555555555554,0)" xlink:href="#ba"/><use transform="matrix(0.05925925925925927,0,0,0.05925925925925927,184.53333333333333,0)" xlink:href="#aV"/><use transform="matrix(0.05925925925925927,0,0,0.05925925925925927,196.38518518518518,0)" xlink:href="#aQ"/><use transform="matrix(0.05925925925925927,0,0,0.05925925925925927,208.23703703703703,0)" xlink:href="#aS"/><use transform="matrix(0.05925925925925927,0,0,0.05925925925925927,214.16296296296295,0)" xlink:href="#bs"/><use transform="matrix(0.05925925925925927,0,0,0.05925925925925927,227.14074074074074,0)" xlink:href="#aX"/><use transform="matrix(0.05925925925925927,0,0,0.05925925925925927,233.06666666666666,0)" xlink:href="#aY"/><use transform="matrix(0.05925925925925927,0,0,0.05925925925925927,246.04444444444442,0)" xlink:href="#aZ"/></g><g id="x"><use transform="matrix(0.06172839506172778,0,0,0.06172839506172778,0,0)" xlink:href="#bc"/><use transform="matrix(0.06172839506172778,0,0,0.06172839506172778,12.345679012345556,0)" xlink:href="#bn"/><use transform="matrix(0.06172839506172778,0,0,0.06172839506172778,25.86419753086394,0)" xlink:href="#aU"/></g><g id="y"><use transform="matrix(0.06172839506172778,0,0,0.06172839506172778,0,0)" xlink:href="#bm"/><use transform="matrix(0.06172839506172778,0,0,0.06172839506172778,7.345679012345606,0)" xlink:href="#aR"/></g><path fill="#333" d="M23 0v-37h61v-169l-59 37v-38l62-41h46v211h57V0H23" id="bI"/><use transform="matrix(0.06172839506172778,0,0,0.06172839506172778,0,0)" xlink:href="#bI" id="z"/><g id="A"><use transform="matrix(0.05925925925925927,0,0,0.05925925925925927,0,0)" xlink:href="#bn"/><use transform="matrix(0.05925925925925927,0,0,0.05925925925925927,12.97777777777778,0)" xlink:href="#ba"/><use transform="matrix(0.05925925925925927,0,0,0.05925925925925927,25.95555555555556,0)" xlink:href="#aS"/><use transform="matrix(0.05925925925925927,0,0,0.05925925925925927,31.881481481481487,0)" xlink:href="#bo"/><use transform="matrix(0.05925925925925927,0,0,0.05925925925925927,44.85925925925927,0)" xlink:href="#bn"/><use transform="matrix(0.05925925925925927,0,0,0.05925925925925927,57.83703703703705,0)" xlink:href="#aV"/><use transform="matrix(0.05925925925925927,0,0,0.05925925925925927,69.6888888888889,0)" xlink:href="#aQ"/><use transform="matrix(0.05925925925925927,0,0,0.05925925925925927,81.54074074074074,0)" xlink:href="#aU"/><use transform="matrix(0.05925925925925927,0,0,0.05925925925925927,88.5925925925926,0)" xlink:href="#bb"/><use transform="matrix(0.05925925925925927,0,0,0.05925925925925927,100.44444444444444,0)" xlink:href="#aW"/><use transform="matrix(0.05925925925925927,0,0,0.05925925925925927,108.74074074074073,0)" xlink:href="#aN"/><use transform="matrix(0.05925925925925927,0,0,0.05925925925925927,121.71851851851851,0)" xlink:href="#aV"/><use transform="matrix(0.05925925925925927,0,0,0.05925925925925927,133.57037037037037,0)" xlink:href="#aU"/><use transform="matrix(0.05925925925925927,0,0,0.05925925925925927,140.62222222222223,0)" xlink:href="#aO"/><use transform="matrix(0.05925925925925927,0,0,0.05925925925925927,152.47407407407408,0)" xlink:href="#aQ"/><use transform="matrix(0.05925925925925927,0,0,0.05925925925925927,164.32592592592593,0)" xlink:href="#aN"/><use transform="matrix(0.05925925925925927,0,0,0.05925925925925927,177.30370370370372,0)" xlink:href="#aV"/><use transform="matrix(0.05925925925925927,0,0,0.05925925925925927,189.15555555555557,0)" xlink:href="#ba"/><use transform="matrix(0.05925925925925927,0,0,0.05925925925925927,202.13333333333335,0)" xlink:href="#aV"/><use transform="matrix(0.05925925925925927,0,0,0.05925925925925927,213.9851851851852,0)" xlink:href="#aS"/><use transform="matrix(0.05925925925925927,0,0,0.05925925925925927,219.91111111111113,0)" xlink:href="#bs"/><use transform="matrix(0.05925925925925927,0,0,0.05925925925925927,232.8888888888889,0)" xlink:href="#aX"/><use transform="matrix(0.05925925925925927,0,0,0.05925925925925927,238.81481481481484,0)" xlink:href="#aU"/><use transform="matrix(0.05925925925925927,0,0,0.05925925925925927,245.8666666666667,0)" xlink:href="#aO"/><use transform="matrix(0.05925925925925927,0,0,0.05925925925925927,257.7185185185186,0)" xlink:href="#be"/></g><g id="B"><use transform="matrix(0.06172839506172778,0,0,0.06172839506172778,0,0)" xlink:href="#aY"/><use transform="matrix(0.06172839506172778,0,0,0.06172839506172778,13.518518518518384,0)" xlink:href="#bb"/><use transform="matrix(0.06172839506172778,0,0,0.06172839506172778,25.86419753086394,0)" xlink:href="#aO"/><use transform="matrix(0.06172839506172778,0,0,0.06172839506172778,38.209876543209496,0)" xlink:href="#aU"/><use transform="matrix(0.06172839506172778,0,0,0.06172839506172778,45.5555555555551,0)" xlink:href="#aV"/></g><g id="C"><use transform="matrix(0.05925925925925927,0,0,0.05925925925925927,0,0)" xlink:href="#aU"/><use transform="matrix(0.05925925925925927,0,0,0.05925925925925927,7.051851851851853,0)" xlink:href="#bb"/><use transform="matrix(0.05925925925925927,0,0,0.05925925925925927,18.903703703703705,0)" xlink:href="#aW"/><use transform="matrix(0.05925925925925927,0,0,0.05925925925925927,27.200000000000003,0)" xlink:href="#aN"/><use transform="matrix(0.05925925925925927,0,0,0.05925925925925927,40.177777777777784,0)" xlink:href="#aV"/><use transform="matrix(0.05925925925925927,0,0,0.05925925925925927,52.02962962962964,0)" xlink:href="#aU"/><use transform="matrix(0.05925925925925927,0,0,0.05925925925925927,59.08148148148149,0)" xlink:href="#aO"/><use transform="matrix(0.05925925925925927,0,0,0.05925925925925927,70.93333333333334,0)" xlink:href="#aQ"/><use transform="matrix(0.05925925925925927,0,0,0.05925925925925927,82.78518518518518,0)" xlink:href="#bc"/><use transform="matrix(0.05925925925925927,0,0,0.05925925925925927,94.63703703703703,0)" xlink:href="#bp"/><use transform="matrix(0.05925925925925927,0,0,0.05925925925925927,107.6148148148148,0)" xlink:href="#aV"/><use transform="matrix(0.05925925925925927,0,0,0.05925925925925927,119.46666666666665,0)" xlink:href="#bq"/><use transform="matrix(0.05925925925925927,0,0,0.05925925925925927,138.42962962962963,0)" xlink:href="#br"/><use transform="matrix(0.05925925925925927,0,0,0.05925925925925927,151.40740740740742,0)" xlink:href="#aT"/><use transform="matrix(0.05925925925925927,0,0,0.05925925925925927,157.33333333333334,0)" xlink:href="#aQ"/><use transform="matrix(0.05925925925925927,0,0,0.05925925925925927,169.1851851851852,0)" xlink:href="#aN"/><use transform="matrix(0.05925925925925927,0,0,0.05925925925925927,182.16296296296298,0)" xlink:href="#aV"/><use transform="matrix(0.05925925925925927,0,0,0.05925925925925927,194.01481481481483,0)" xlink:href="#ba"/><use transform="matrix(0.05925925925925927,0,0,0.05925925925925927,206.99259259259262,0)" xlink:href="#aV"/><use transform="matrix(0.05925925925925927,0,0,0.05925925925925927,218.84444444444446,0)" xlink:href="#aS"/><use transform="matrix(0.05925925925925927,0,0,0.05925925925925927,224.7703703703704,0)" xlink:href="#bs"/><use transform="matrix(0.05925925925925927,0,0,0.05925925925925927,237.74814814814818,0)" xlink:href="#aX"/><use transform="matrix(0.05925925925925927,0,0,0.05925925925925927,243.6740740740741,0)" xlink:href="#aU"/><use transform="matrix(0.05925925925925927,0,0,0.05925925925925927,250.72592592592596,0)" xlink:href="#aO"/><use transform="matrix(0.05925925925925927,0,0,0.05925925925925927,262.57777777777784,0)" xlink:href="#be"/></g><path fill="#333" d="M231 0h-52l-39-155L100 0H48L-1-190h46L77-45c9-52 24-97 36-145h53l37 145 32-145h46" id="bJ"/><g id="D"><use transform="matrix(0.06172839506172778,0,0,0.06172839506172778,0,0)" xlink:href="#bb"/><use transform="matrix(0.06172839506172778,0,0,0.06172839506172778,12.345679012345556,0)" xlink:href="#bJ"/><use transform="matrix(0.06172839506172778,0,0,0.06172839506172778,29.629629629629335,0)" xlink:href="#aP"/></g><g id="E"><use transform="matrix(0.05925925925925927,0,0,0.05925925925925927,0,0)" xlink:href="#aU"/><use transform="matrix(0.05925925925925927,0,0,0.05925925925925927,7.051851851851853,0)" xlink:href="#aW"/><use transform="matrix(0.05925925925925927,0,0,0.05925925925925927,15.34814814814815,0)" xlink:href="#bb"/><use transform="matrix(0.05925925925925927,0,0,0.05925925925925927,27.200000000000003,0)" xlink:href="#ba"/><use transform="matrix(0.05925925925925927,0,0,0.05925925925925927,40.177777777777784,0)" xlink:href="#aO"/><use transform="matrix(0.05925925925925927,0,0,0.05925925925925927,52.02962962962964,0)" xlink:href="#aT"/><use transform="matrix(0.05925925925925927,0,0,0.05925925925925927,57.95555555555556,0)" xlink:href="#bb"/><use transform="matrix(0.05925925925925927,0,0,0.05925925925925927,69.80740740740741,0)" xlink:href="#aU"/><use transform="matrix(0.05925925925925927,0,0,0.05925925925925927,76.85925925925926,0)" xlink:href="#aV"/><use transform="matrix(0.05925925925925927,0,0,0.05925925925925927,88.71111111111111,0)" xlink:href="#bs"/><use transform="matrix(0.05925925925925927,0,0,0.05925925925925927,101.68888888888888,0)" xlink:href="#aQ"/><use transform="matrix(0.05925925925925927,0,0,0.05925925925925927,113.54074074074073,0)" xlink:href="#aS"/><use transform="matrix(0.05925925925925927,0,0,0.05925925925925927,119.46666666666665,0)" xlink:href="#ba"/><use transform="matrix(0.05925925925925927,0,0,0.05925925925925927,132.44444444444443,0)" xlink:href="#aU"/><use transform="matrix(0.05925925925925927,0,0,0.05925925925925927,139.4962962962963,0)" xlink:href="#aV"/><use transform="matrix(0.05925925925925927,0,0,0.05925925925925927,151.34814814814814,0)" xlink:href="#aW"/><use transform="matrix(0.05925925925925927,0,0,0.05925925925925927,159.64444444444445,0)" xlink:href="#bb"/><use transform="matrix(0.05925925925925927,0,0,0.05925925925925927,171.4962962962963,0)" xlink:href="#bc"/><use transform="matrix(0.05925925925925927,0,0,0.05925925925925927,183.34814814814814,0)" xlink:href="#aU"/><use transform="matrix(0.05925925925925927,0,0,0.05925925925925927,190.4,0)" xlink:href="#aS"/><use transform="matrix(0.05925925925925927,0,0,0.05925925925925927,196.32592592592593,0)" xlink:href="#bd"/><use transform="matrix(0.05925925925925927,0,0,0.05925925925925927,209.30370370370372,0)" xlink:href="#ba"/><use transform="matrix(0.05925925925925927,0,0,0.05925925925925927,222.2814814814815,0)" xlink:href="#aO"/><use transform="matrix(0.05925925925925927,0,0,0.05925925925925927,234.13333333333335,0)" xlink:href="#aX"/><use transform="matrix(0.05925925925925927,0,0,0.05925925925925927,240.05925925925928,0)" xlink:href="#aU"/><use transform="matrix(0.05925925925925927,0,0,0.05925925925925927,247.11111111111114,0)" xlink:href="#aO"/><use transform="matrix(0.05925925925925927,0,0,0.05925925925925927,258.962962962963,0)" xlink:href="#be"/></g><path d="M50-224l7-37h49l-7 37H50zm1 246C45 64 7 85-39 71l7-33c23 5 33-8 36-27l39-201h49" id="bK"/><path d="M124-194c51 0 84 22 84 74C207-44 167 4 94 4 43 4 11-23 11-74c0-74 41-120 113-120zM99-30c46 0 58-42 58-86 0-27-11-44-37-44-44 0-55 40-57 84-1 27 10 45 36 46" id="bL"/><path d="M69 3c-96 0-34-126-28-193h49L65-57c6 42 62 18 71-6 14-38 17-86 28-127h50L178 0h-47c0-11 4-26 3-33-14 20-30 37-65 36" id="bM"/><path d="M84-151c13-25 34-51 72-40l-8 41C67-170 71-64 56 0H6l36-190h47" id="bN"/><path d="M151-194c95 0 34 128 28 194h-49l25-134c0-29-45-25-59-9C67-111 69-48 56 0H6l36-190h47l-4 32c15-20 33-36 66-36" id="bO"/><path d="M166-52c-4 17 5 29 24 23l-3 27c-30 11-74 1-67-34C105-15 91 4 56 4 23 4 3-15 2-49c0-64 63-67 128-67 10-22 3-53-29-45-13 3-22 10-25 24l-46-5c5-64 156-77 153 0-1 33-11 60-17 90zM97-88c-44-9-64 57-19 57 31 0 42-28 47-57H97" id="bP"/><path d="M6 0l51-261h49L55 0H6" id="bQ"/><path d="M8 0l10-54h51L59 0H8" id="bR"/><path d="M156-122c2-23-7-37-28-37-47 0-58 44-58 89 0 24 12 40 36 40 43 0 47-49 50-92zM-8 75l50-265h48c0 10-3 24-3 30 22-50 127-45 121 29-6 73-21 135-92 135-29 0-46-14-55-35L41 75H-8" id="bS"/><path d="M67-101c-8 29-7 73 27 71 23-2 32-16 39-37l48 9C170-19 141 4 91 4 36 4 7-28 12-86c6-75 61-124 140-103 26 7 40 29 43 59l-50 4c-1-20-9-34-29-34-35 0-41 29-49 59" id="bT"/><path d="M87-160c15-17 32-34 63-34 99 1 59 172-1 192-36 12-78 0-87-29L54 0H6l52-261h49zm71 38c0-24-5-37-29-37-46 0-55 46-57 89-1 25 12 40 35 40 44 0 51-50 51-92" id="bU"/><path d="M50-224l7-37h49l-7 37H50zM6 0l37-190h49L55 0H6" id="bV"/><path d="M6 0l7-41h62l31-161-67 37 8-42 70-41h48L124-41h57l-8 41H6" id="bW"/><path d="M15-80c0-86 24-171 112-171 50 0 70 31 70 82C197-84 171 4 84 4 34 4 15-29 15-80zm134-92c6-42-44-55-60-23C72-160 55-94 68-46c4 6 9 12 19 11 56-6 53-82 62-137" id="bX"/><path d="M154-50L144 0H97l10-50H-6l7-37 126-161h65L161-87h33l-7 37h-33zm-40-37l27-125c-29 45-64 83-95 125h68" id="bY"/><path d="M121-251c83 0 93 87 42 126-35 27-77 48-103 84h115l-7 41H-6C6-94 102-103 141-168c11-20 3-46-24-44-23 2-33 13-39 32l-47-10c12-38 39-61 90-61" id="bZ"/><path d="M144-137c-1-29-70-35-71-2 16 41 103 10 103 80C176 9 79 16 32-9 18-17 9-31 4-48l44-6c3 32 80 36 82 1-15-42-103-11-103-82 0-77 157-79 161-8" id="ca"/><path d="M157-208L117 0H65l40-208H25l8-40h212l-8 40h-80" id="cb"/><path d="M178-136c88 48 22 151-73 140C49-3 12-15 4-64l51-9c1 50 111 53 115 3-16-63-132-20-133-112 0-93 190-91 199-10l-50 12c-4-41-93-50-97-4 7 38 59 32 89 48" id="cc"/><path d="M130 0H70L30-248h54l24 206c31-72 69-137 103-206h54" id="cd"/><g id="F"><use transform="matrix(0.05925925925925927,0,0,0.05925925925925927,0,0)" xlink:href="#bK"/><use transform="matrix(0.05925925925925927,0,0,0.05925925925925927,5.9259259259259265,0)" xlink:href="#bL"/><use transform="matrix(0.05925925925925927,0,0,0.05925925925925927,18.903703703703705,0)" xlink:href="#bM"/><use transform="matrix(0.05925925925925927,0,0,0.05925925925925927,31.881481481481487,0)" xlink:href="#bN"/><use transform="matrix(0.05925925925925927,0,0,0.05925925925925927,40.177777777777784,0)" xlink:href="#bO"/><use transform="matrix(0.05925925925925927,0,0,0.05925925925925927,53.155555555555566,0)" xlink:href="#bP"/><use transform="matrix(0.05925925925925927,0,0,0.05925925925925927,65.00740740740741,0)" xlink:href="#bQ"/><use transform="matrix(0.05925925925925927,0,0,0.05925925925925927,70.93333333333334,0)" xlink:href="#bR"/><use transform="matrix(0.05925925925925927,0,0,0.05925925925925927,76.85925925925926,0)" xlink:href="#bS"/><use transform="matrix(0.05925925925925927,0,0,0.05925925925925927,89.83703703703704,0)" xlink:href="#bT"/><use transform="matrix(0.05925925925925927,0,0,0.05925925925925927,101.68888888888888,0)" xlink:href="#bU"/><use transform="matrix(0.05925925925925927,0,0,0.05925925925925927,114.66666666666666,0)" xlink:href="#bV"/><use transform="matrix(0.05925925925925927,0,0,0.05925925925925927,120.59259259259258,0)" xlink:href="#bR"/><use transform="matrix(0.05925925925925927,0,0,0.05925925925925927,126.5185185185185,0)" xlink:href="#bW"/><use transform="matrix(0.05925925925925927,0,0,0.05925925925925927,138.37037037037035,0)" xlink:href="#bX"/><use transform="matrix(0.05925925925925927,0,0,0.05925925925925927,150.2222222222222,0)" xlink:href="#bX"/><use transform="matrix(0.05925925925925927,0,0,0.05925925925925927,162.07407407407405,0)" xlink:href="#bY"/><use transform="matrix(0.05925925925925927,0,0,0.05925925925925927,173.9259259259259,0)" xlink:href="#bW"/><use transform="matrix(0.05925925925925927,0,0,0.05925925925925927,185.77777777777774,0)" xlink:href="#bZ"/><use transform="matrix(0.05925925925925927,0,0,0.05925925925925927,197.6296296296296,0)" xlink:href="#bX"/><use transform="matrix(0.05925925925925927,0,0,0.05925925925925927,209.48148148148144,0)" xlink:href="#bR"/><use transform="matrix(0.05925925925925927,0,0,0.05925925925925927,215.40740740740736,0)" xlink:href="#ca"/><use transform="matrix(0.05925925925925927,0,0,0.05925925925925927,227.2592592592592,0)" xlink:href="#bX"/><use transform="matrix(0.05925925925925927,0,0,0.05925925925925927,239.11111111111106,0)" xlink:href="#bX"/><use transform="matrix(0.05925925925925927,0,0,0.05925925925925927,250.9629629629629,0)" xlink:href="#bY"/><use transform="matrix(0.05925925925925927,0,0,0.05925925925925927,262.8148148148148,0)" xlink:href="#bR"/><use transform="matrix(0.05925925925925927,0,0,0.05925925925925927,268.7407407407407,0)" xlink:href="#cb"/><use transform="matrix(0.05925925925925927,0,0,0.05925925925925927,281.71851851851847,0)" xlink:href="#cc"/><use transform="matrix(0.05925925925925927,0,0,0.05925925925925927,295.9407407407407,0)" xlink:href="#cd"/></g><g id="G"><use transform="matrix(0.05925925925925927,0,0,0.05925925925925927,0,0)" xlink:href="#br"/><use transform="matrix(0.05925925925925927,0,0,0.05925925925925927,12.97777777777778,0)" xlink:href="#aW"/><use transform="matrix(0.05925925925925927,0,0,0.05925925925925927,21.27407407407408,0)" xlink:href="#aV"/><use transform="matrix(0.05925925925925927,0,0,0.05925925925925927,33.125925925925934,0)" xlink:href="#bb"/><use transform="matrix(0.05925925925925927,0,0,0.05925925925925927,44.97777777777779,0)" xlink:href="#aO"/><use transform="matrix(0.05925925925925927,0,0,0.05925925925925927,56.82962962962964,0)" xlink:href="#aU"/><use transform="matrix(0.05925925925925927,0,0,0.05925925925925927,63.881481481481494,0)" xlink:href="#aQ"/><use transform="matrix(0.05925925925925927,0,0,0.05925925925925927,75.73333333333335,0)" xlink:href="#bc"/><use transform="matrix(0.05925925925925927,0,0,0.05925925925925927,87.5851851851852,0)" xlink:href="#bb"/><use transform="matrix(0.05925925925925927,0,0,0.05925925925925927,99.43703703703704,0)" xlink:href="#ba"/><use transform="matrix(0.05925925925925927,0,0,0.05925925925925927,112.41481481481482,0)" xlink:href="#bc"/><use transform="matrix(0.05925925925925927,0,0,0.05925925925925927,124.26666666666667,0)" xlink:href="#aV"/><use transform="matrix(0.05925925925925927,0,0,0.05925925925925927,136.11851851851853,0)" xlink:href="#aW"/><use transform="matrix(0.05925925925925927,0,0,0.05925925925925927,144.41481481481483,0)" xlink:href="#aQ"/><use transform="matrix(0.05925925925925927,0,0,0.05925925925925927,156.26666666666668,0)" xlink:href="#aN"/><use transform="matrix(0.05925925925925927,0,0,0.05925925925925927,169.24444444444447,0)" xlink:href="#aV"/><use transform="matrix(0.05925925925925927,0,0,0.05925925925925927,181.09629629629632,0)" xlink:href="#ba"/><use transform="matrix(0.05925925925925927,0,0,0.05925925925925927,194.0740740740741,0)" xlink:href="#aV"/><use transform="matrix(0.05925925925925927,0,0,0.05925925925925927,205.92592592592595,0)" xlink:href="#aO"/><use transform="matrix(0.05925925925925927,0,0,0.05925925925925927,217.7777777777778,0)" xlink:href="#aX"/><use transform="matrix(0.05925925925925927,0,0,0.05925925925925927,223.70370370370372,0)" xlink:href="#aU"/><use transform="matrix(0.05925925925925927,0,0,0.05925925925925927,230.7555555555556,0)" xlink:href="#aO"/><use transform="matrix(0.05925925925925927,0,0,0.05925925925925927,242.60740740740744,0)" xlink:href="#be"/></g><g id="H"><use transform="matrix(0.05925925925925927,0,0,0.05925925925925927,0,0)" xlink:href="#aR"/><use transform="matrix(0.05925925925925927,0,0,0.05925925925925927,7.051851851851853,0)" xlink:href="#aT"/><use transform="matrix(0.05925925925925927,0,0,0.05925925925925927,12.97777777777778,0)" xlink:href="#bb"/><use transform="matrix(0.05925925925925927,0,0,0.05925925925925927,24.829629629629633,0)" xlink:href="#aN"/><use transform="matrix(0.05925925925925927,0,0,0.05925925925925927,37.80740740740741,0)" xlink:href="#aN"/><use transform="matrix(0.05925925925925927,0,0,0.05925925925925927,50.78518518518519,0)" xlink:href="#aV"/><use transform="matrix(0.05925925925925927,0,0,0.05925925925925927,62.63703703703705,0)" xlink:href="#bs"/><use transform="matrix(0.05925925925925927,0,0,0.05925925925925927,75.61481481481482,0)" xlink:href="#aQ"/><use transform="matrix(0.05925925925925927,0,0,0.05925925925925927,87.46666666666667,0)" xlink:href="#aS"/><use transform="matrix(0.05925925925925927,0,0,0.05925925925925927,93.39259259259259,0)" xlink:href="#ba"/><use transform="matrix(0.05925925925925927,0,0,0.05925925925925927,106.37037037037037,0)" xlink:href="#aU"/><use transform="matrix(0.05925925925925927,0,0,0.05925925925925927,113.42222222222222,0)" xlink:href="#aV"/><use transform="matrix(0.05925925925925927,0,0,0.05925925925925927,125.27407407407406,0)" xlink:href="#aW"/><use transform="matrix(0.05925925925925927,0,0,0.05925925925925927,133.57037037037037,0)" xlink:href="#bb"/><use transform="matrix(0.05925925925925927,0,0,0.05925925925925927,145.42222222222222,0)" xlink:href="#bc"/><use transform="matrix(0.05925925925925927,0,0,0.05925925925925927,157.27407407407406,0)" xlink:href="#aU"/><use transform="matrix(0.05925925925925927,0,0,0.05925925925925927,164.32592592592593,0)" xlink:href="#aS"/><use transform="matrix(0.05925925925925927,0,0,0.05925925925925927,170.25185185185185,0)" xlink:href="#bd"/><use transform="matrix(0.05925925925925927,0,0,0.05925925925925927,183.22962962962964,0)" xlink:href="#ba"/><use transform="matrix(0.05925925925925927,0,0,0.05925925925925927,196.20740740740743,0)" xlink:href="#aO"/><use transform="matrix(0.05925925925925927,0,0,0.05925925925925927,208.05925925925928,0)" xlink:href="#aX"/><use transform="matrix(0.05925925925925927,0,0,0.05925925925925927,213.9851851851852,0)" xlink:href="#aU"/><use transform="matrix(0.05925925925925927,0,0,0.05925925925925927,221.03703703703707,0)" xlink:href="#aO"/><use transform="matrix(0.05925925925925927,0,0,0.05925925925925927,232.8888888888889,0)" xlink:href="#be"/></g><path fill="#333" d="M24-248c120-7 223 5 221 122C244-46 201 0 124 0H24v-248zM76-40c74 7 117-18 117-86 0-67-45-88-117-82v168" id="ce"/><path fill="#333" d="M24 0v-248h52V0H24" id="cf"/><path fill="#333" d="M140-251c80 0 125 45 125 126S219 4 139 4C58 4 15-44 15-125s44-126 125-126zm-1 214c52 0 73-35 73-88 0-50-21-86-72-86-52 0-73 35-73 86s22 88 72 88" id="cg"/><g id="I"><use transform="matrix(0.04938271604938272,0,0,0.04938271604938272,0,0)" xlink:href="#ce"/><use transform="matrix(0.04938271604938272,0,0,0.04938271604938272,12.790123456790125,0)" xlink:href="#cf"/><use transform="matrix(0.04938271604938272,0,0,0.04938271604938272,17.7283950617284,0)" xlink:href="#bl"/><use transform="matrix(0.04938271604938272,0,0,0.04938271604938272,30.518518518518526,0)" xlink:href="#bi"/><use transform="matrix(0.04938271604938272,0,0,0.04938271604938272,45.28395061728396,0)" xlink:href="#cg"/><use transform="matrix(0.04938271604938272,0,0,0.04938271604938272,59.11111111111113,0)" xlink:href="#ba"/><use transform="matrix(0.04938271604938272,0,0,0.04938271604938272,69.92592592592594,0)" xlink:href="#ce"/></g><path fill="#333" d="M136-208V0H84v-208H4v-40h212v40h-80" id="ch"/><g id="J"><use transform="matrix(0.05925925925925927,0,0,0.05925925925925927,0,0)" xlink:href="#ch"/><use transform="matrix(0.05925925925925927,0,0,0.05925925925925927,11.792592592592595,0)" xlink:href="#aW"/><use transform="matrix(0.05925925925925927,0,0,0.05925925925925927,20.088888888888892,0)" xlink:href="#bb"/><use transform="matrix(0.05925925925925927,0,0,0.05925925925925927,31.940740740740747,0)" xlink:href="#ba"/><use transform="matrix(0.05925925925925927,0,0,0.05925925925925927,44.918518518518525,0)" xlink:href="#aO"/><use transform="matrix(0.05925925925925927,0,0,0.05925925925925927,56.77037037037038,0)" xlink:href="#aT"/><use transform="matrix(0.05925925925925927,0,0,0.05925925925925927,62.6962962962963,0)" xlink:href="#bb"/><use transform="matrix(0.05925925925925927,0,0,0.05925925925925927,74.54814814814816,0)" xlink:href="#aU"/><use transform="matrix(0.05925925925925927,0,0,0.05925925925925927,81.60000000000001,0)" xlink:href="#aS"/><use transform="matrix(0.05925925925925927,0,0,0.05925925925925927,87.52592592592593,0)" xlink:href="#ba"/><use transform="matrix(0.05925925925925927,0,0,0.05925925925925927,100.5037037037037,0)" xlink:href="#aN"/></g><g id="K"><use transform="matrix(0.05925925925925927,0,0,0.05925925925925927,0,0)" xlink:href="#aU"/><use transform="matrix(0.05925925925925927,0,0,0.05925925925925927,7.051851851851853,0)" xlink:href="#bb"/><use transform="matrix(0.05925925925925927,0,0,0.05925925925925927,18.903703703703705,0)" xlink:href="#aW"/><use transform="matrix(0.05925925925925927,0,0,0.05925925925925927,27.200000000000003,0)" xlink:href="#aN"/><use transform="matrix(0.05925925925925927,0,0,0.05925925925925927,40.177777777777784,0)" xlink:href="#aV"/><use transform="matrix(0.05925925925925927,0,0,0.05925925925925927,52.02962962962964,0)" xlink:href="#aU"/></g><g id="L"><use transform="matrix(0.05925925925925927,0,0,0.05925925925925927,0,0)" xlink:href="#bf"/><use transform="matrix(0.05925925925925927,0,0,0.05925925925925927,15.34814814814815,0)" xlink:href="#bg"/><use transform="matrix(0.05925925925925927,0,0,0.05925925925925927,30.6962962962963,0)" xlink:href="#bh"/><use transform="matrix(0.05925925925925927,0,0,0.05925925925925927,44.918518518518525,0)" xlink:href="#bi"/><use transform="matrix(0.05925925925925927,0,0,0.05925925925925927,62.63703703703705,0)" xlink:href="#bj"/><use transform="matrix(0.05925925925925927,0,0,0.05925925925925927,77.9851851851852,0)" xlink:href="#bk"/></g><g id="M"><use transform="matrix(0.05925925925925927,0,0,0.05925925925925927,0,0)" xlink:href="#aS"/><use transform="matrix(0.05925925925925927,0,0,0.05925925925925927,5.9259259259259265,0)" xlink:href="#bs"/><use transform="matrix(0.05925925925925927,0,0,0.05925925925925927,18.903703703703705,0)" xlink:href="#aO"/></g><g id="N"><use transform="matrix(0.05925925925925927,0,0,0.05925925925925927,0,0)" xlink:href="#aU"/><use transform="matrix(0.05925925925925927,0,0,0.05925925925925927,7.051851851851853,0)" xlink:href="#bd"/></g><path fill="#333" d="M175 0L67-191c6 58 2 128 3 191H24v-248h59L193-55c-6-58-2-129-3-193h46V0h-61" id="ci"/><g id="O"><use transform="matrix(0.05925925925925927,0,0,0.05925925925925927,0,0)" xlink:href="#ci"/><use transform="matrix(0.05925925925925927,0,0,0.05925925925925927,15.34814814814815,0)" xlink:href="#bf"/><use transform="matrix(0.05925925925925927,0,0,0.05925925925925927,30.6962962962963,0)" xlink:href="#bj"/><use transform="matrix(0.05925925925925927,0,0,0.05925925925925927,46.04444444444445,0)" xlink:href="#cf"/></g><g id="P"><use transform="matrix(0.06172839506172778,0,0,0.06172839506172778,0,0)" xlink:href="#bl"/><use transform="matrix(0.06172839506172778,0,0,0.06172839506172778,15.987654320987495,0)" xlink:href="#aO"/><use transform="matrix(0.06172839506172778,0,0,0.06172839506172778,28.33333333333305,0)" xlink:href="#aO"/><use transform="matrix(0.06172839506172778,0,0,0.06172839506172778,40.67901234567861,0)" xlink:href="#bb"/><use transform="matrix(0.06172839506172778,0,0,0.06172839506172778,53.024691358024164,0)" xlink:href="#aZ"/></g><g id="Q"><use transform="matrix(0.06172839506172778,0,0,0.06172839506172778,0,0)" xlink:href="#bo"/><use transform="matrix(0.06172839506172778,0,0,0.06172839506172778,13.518518518518384,0)" xlink:href="#bn"/><use transform="matrix(0.06172839506172778,0,0,0.06172839506172778,27.037037037036768,0)" xlink:href="#aV"/><use transform="matrix(0.06172839506172778,0,0,0.06172839506172778,39.382716049382324,0)" xlink:href="#aW"/><use transform="matrix(0.06172839506172778,0,0,0.06172839506172778,48.024691358024214,0)" xlink:href="#aZ"/></g><g id="R"><use transform="matrix(0.06172839506172778,0,0,0.06172839506172778,0,0)" xlink:href="#cf"/><use transform="matrix(0.06172839506172778,0,0,0.06172839506172778,6.172839506172778,0)" xlink:href="#ba"/><use transform="matrix(0.06172839506172778,0,0,0.06172839506172778,19.691358024691162,0)" xlink:href="#bp"/><use transform="matrix(0.06172839506172778,0,0,0.06172839506172778,33.209876543209546,0)" xlink:href="#aS"/><use transform="matrix(0.06172839506172778,0,0,0.06172839506172778,39.382716049382324,0)" xlink:href="#br"/><use transform="matrix(0.06172839506172778,0,0,0.06172839506172778,52.90123456790071,0)" xlink:href="#aS"/><use transform="matrix(0.06172839506172778,0,0,0.06172839506172778,59.074074074073486,0)" xlink:href="#aU"/><use transform="matrix(0.06172839506172778,0,0,0.06172839506172778,66.41975308641909,0)" xlink:href="#aS"/><use transform="matrix(0.06172839506172778,0,0,0.06172839506172778,72.59259259259187,0)" xlink:href="#bd"/><use transform="matrix(0.06172839506172778,0,0,0.06172839506172778,86.11111111111026,0)" xlink:href="#ba"/></g><g id="S"><use transform="matrix(0.06172839506172778,0,0,0.06172839506172778,0,0)" xlink:href="#ch"/><use transform="matrix(0.06172839506172778,0,0,0.06172839506172778,13.518518518518384,0)" xlink:href="#bp"/><use transform="matrix(0.06172839506172778,0,0,0.06172839506172778,27.037037037036768,0)" xlink:href="#aW"/><use transform="matrix(0.06172839506172778,0,0,0.06172839506172778,35.67901234567866,0)" xlink:href="#aV"/><use transform="matrix(0.06172839506172778,0,0,0.06172839506172778,48.024691358024214,0)" xlink:href="#aO"/><use transform="matrix(0.06172839506172778,0,0,0.06172839506172778,60.37037037036977,0)" xlink:href="#bp"/><use transform="matrix(0.06172839506172778,0,0,0.06172839506172778,73.88888888888815,0)" xlink:href="#bp"/><use transform="matrix(0.06172839506172778,0,0,0.06172839506172778,87.40740740740654,0)" xlink:href="#bd"/><use transform="matrix(0.06172839506172778,0,0,0.06172839506172778,100.92592592592493,0)" xlink:href="#aT"/><use transform="matrix(0.06172839506172778,0,0,0.06172839506172778,107.09876543209771,0)" xlink:href="#bs"/></g><g id="T"><use transform="matrix(0.06172839506172778,0,0,0.06172839506172778,0,0)" xlink:href="#br"/><use transform="matrix(0.06172839506172778,0,0,0.06172839506172778,13.518518518518384,0)" xlink:href="#aS"/><use transform="matrix(0.06172839506172778,0,0,0.06172839506172778,19.691358024691162,0)" xlink:href="#ba"/><use transform="matrix(0.06172839506172778,0,0,0.06172839506172778,33.209876543209546,0)" xlink:href="#bd"/><use transform="matrix(0.06172839506172778,0,0,0.06172839506172778,46.72839506172793,0)" xlink:href="#bq"/><use transform="matrix(0.06172839506172778,0,0,0.06172839506172778,66.48148148148081,0)" xlink:href="#aX"/><use transform="matrix(0.06172839506172778,0,0,0.06172839506172778,72.65432098765359,0)" xlink:href="#aY"/><use transform="matrix(0.06172839506172778,0,0,0.06172839506172778,86.17283950617198,0)" xlink:href="#aZ"/></g><g id="U"><use transform="matrix(0.06172839506172778,0,0,0.06172839506172778,0,0)" xlink:href="#bf"/><use transform="matrix(0.06172839506172778,0,0,0.06172839506172778,15.987654320987495,0)" xlink:href="#bd"/><use transform="matrix(0.06172839506172778,0,0,0.06172839506172778,29.50617283950588,0)" xlink:href="#ba"/><use transform="matrix(0.06172839506172778,0,0,0.06172839506172778,43.02469135802426,0)" xlink:href="#aR"/><use transform="matrix(0.06172839506172778,0,0,0.06172839506172778,50.37037037036987,0)" xlink:href="#aS"/><use transform="matrix(0.06172839506172778,0,0,0.06172839506172778,56.54320987654265,0)" xlink:href="#bs"/><use transform="matrix(0.06172839506172778,0,0,0.06172839506172778,70.06172839506104,0)" xlink:href="#aV"/><use transform="matrix(0.06172839506172778,0,0,0.06172839506172778,82.4074074074066,0)" xlink:href="#ba"/><use transform="matrix(0.06172839506172778,0,0,0.06172839506172778,95.92592592592499,0)" xlink:href="#bc"/><use transform="matrix(0.06172839506172778,0,0,0.06172839506172778,108.27160493827054,0)" xlink:href="#aV"/></g><g id="V"><use transform="matrix(0.06172839506172778,0,0,0.06172839506172778,0,0)" xlink:href="#aS"/><use transform="matrix(0.06172839506172778,0,0,0.06172839506172778,6.172839506172778,0)" xlink:href="#ba"/><use transform="matrix(0.06172839506172778,0,0,0.06172839506172778,19.691358024691162,0)" xlink:href="#aU"/><use transform="matrix(0.06172839506172778,0,0,0.06172839506172778,27.037037037036768,0)" xlink:href="#aV"/><use transform="matrix(0.06172839506172778,0,0,0.06172839506172778,39.382716049382324,0)" xlink:href="#aW"/><use transform="matrix(0.06172839506172778,0,0,0.06172839506172778,48.024691358024214,0)" xlink:href="#be"/><use transform="matrix(0.06172839506172778,0,0,0.06172839506172778,60.37037037036977,0)" xlink:href="#bb"/><use transform="matrix(0.06172839506172778,0,0,0.06172839506172778,72.71604938271533,0)" xlink:href="#aT"/></g><path fill="#333" d="M275 0h-61l-44-196L126 0H64L0-248h53L97-49l45-199h58l43 199 44-199h52" id="cj"/><g id="W"><use transform="matrix(0.06172839506172778,0,0,0.06172839506172778,0,0)" xlink:href="#cj"/><use transform="matrix(0.06172839506172778,0,0,0.06172839506172778,20.493827160493623,0)" xlink:href="#bd"/><use transform="matrix(0.06172839506172778,0,0,0.06172839506172778,34.01234567901201,0)" xlink:href="#aW"/><use transform="matrix(0.06172839506172778,0,0,0.06172839506172778,42.6543209876539,0)" xlink:href="#aP"/><use transform="matrix(0.06172839506172778,0,0,0.06172839506172778,54.99999999999945,0)" xlink:href="#aR"/><use transform="matrix(0.06172839506172778,0,0,0.06172839506172778,62.34567901234506,0)" xlink:href="#aT"/><use transform="matrix(0.06172839506172778,0,0,0.06172839506172778,68.51851851851784,0)" xlink:href="#bd"/><use transform="matrix(0.06172839506172778,0,0,0.06172839506172778,82.03703703703621,0)" xlink:href="#bJ"/></g><g id="X"><use transform="matrix(0.06172839506172778,0,0,0.06172839506172778,0,0)" xlink:href="#aS"/><use transform="matrix(0.06172839506172778,0,0,0.06172839506172778,6.172839506172778,0)" xlink:href="#ba"/><use transform="matrix(0.06172839506172778,0,0,0.06172839506172778,19.691358024691162,0)" xlink:href="#aY"/><use transform="matrix(0.06172839506172778,0,0,0.06172839506172778,33.209876543209546,0)" xlink:href="#bn"/><use transform="matrix(0.06172839506172778,0,0,0.06172839506172778,46.72839506172793,0)" xlink:href="#aU"/><use transform="matrix(0.06172839506172778,0,0,0.06172839506172778,54.074074074073536,0)" xlink:href="#aO"/></g><g id="Y"><use transform="matrix(0.05925925925925927,0,0,0.05925925925925927,0,0)" xlink:href="#aY"/><use transform="matrix(0.05925925925925927,0,0,0.05925925925925927,12.97777777777778,0)" xlink:href="#be"/><use transform="matrix(0.05925925925925927,0,0,0.05925925925925927,24.829629629629633,0)" xlink:href="#bb"/><use transform="matrix(0.05925925925925927,0,0,0.05925925925925927,36.681481481481484,0)" xlink:href="#aT"/><use transform="matrix(0.05925925925925927,0,0,0.05925925925925927,42.60740740740741,0)" xlink:href="#bn"/><use transform="matrix(0.05925925925925927,0,0,0.05925925925925927,55.58518518518519,0)" xlink:href="#aV"/><use transform="matrix(0.05925925925925927,0,0,0.05925925925925927,67.43703703703704,0)" xlink:href="#bs"/><use transform="matrix(0.05925925925925927,0,0,0.05925925925925927,80.41481481481482,0)" xlink:href="#aQ"/><use transform="matrix(0.05925925925925927,0,0,0.05925925925925927,92.26666666666667,0)" xlink:href="#aS"/><use transform="matrix(0.05925925925925927,0,0,0.05925925925925927,98.19259259259259,0)" xlink:href="#ba"/><use transform="matrix(0.05925925925925927,0,0,0.05925925925925927,111.17037037037036,0)" xlink:href="#aU"/><use transform="matrix(0.05925925925925927,0,0,0.05925925925925927,118.22222222222221,0)" xlink:href="#aV"/><use transform="matrix(0.05925925925925927,0,0,0.05925925925925927,130.07407407407408,0)" xlink:href="#aW"/><use transform="matrix(0.05925925925925927,0,0,0.05925925925925927,138.37037037037038,0)" xlink:href="#bb"/><use transform="matrix(0.05925925925925927,0,0,0.05925925925925927,150.22222222222223,0)" xlink:href="#bc"/><use transform="matrix(0.05925925925925927,0,0,0.05925925925925927,162.07407407407408,0)" xlink:href="#aU"/><use transform="matrix(0.05925925925925927,0,0,0.05925925925925927,169.12592592592594,0)" xlink:href="#aS"/><use transform="matrix(0.05925925925925927,0,0,0.05925925925925927,175.05185185185186,0)" xlink:href="#bd"/><use transform="matrix(0.05925925925925927,0,0,0.05925925925925927,188.02962962962965,0)" xlink:href="#ba"/><use transform="matrix(0.05925925925925927,0,0,0.05925925925925927,201.00740740740744,0)" xlink:href="#aO"/><use transform="matrix(0.05925925925925927,0,0,0.05925925925925927,212.8592592592593,0)" xlink:href="#aX"/><use transform="matrix(0.05925925925925927,0,0,0.05925925925925927,218.7851851851852,0)" xlink:href="#aU"/><use transform="matrix(0.05925925925925927,0,0,0.05925925925925927,225.83703703703708,0)" xlink:href="#aO"/><use transform="matrix(0.05925925925925927,0,0,0.05925925925925927,237.68888888888893,0)" xlink:href="#be"/></g><g id="Z"><use transform="matrix(0.06172839506172778,0,0,0.06172839506172778,0,0)" xlink:href="#aN"/><use transform="matrix(0.06172839506172778,0,0,0.06172839506172778,13.518518518518384,0)" xlink:href="#aW"/><use transform="matrix(0.06172839506172778,0,0,0.06172839506172778,22.160493827160273,0)" xlink:href="#bb"/><use transform="matrix(0.06172839506172778,0,0,0.06172839506172778,34.50617283950583,0)" xlink:href="#aY"/><use transform="matrix(0.06172839506172778,0,0,0.06172839506172778,48.024691358024214,0)" xlink:href="#bp"/><use transform="matrix(0.06172839506172778,0,0,0.06172839506172778,61.5432098765426,0)" xlink:href="#aX"/><use transform="matrix(0.06172839506172778,0,0,0.06172839506172778,67.71604938271537,0)" xlink:href="#aY"/><use transform="matrix(0.06172839506172778,0,0,0.06172839506172778,81.23456790123376,0)" xlink:href="#aZ"/></g></defs></g></svg>